<svg width="1440" height="879" viewBox="0 0 1440 879" fill="none" xmlns="http://www.w3.org/2000/svg">
<path d="M765.061 -255H721.146M765.061 -255V-209.795M765.061 -255H808.977M721.146 -255V-209.795M721.146 -255H675.939M721.146 -209.795H765.061M721.146 -209.795V-165.882M721.146 -209.795H675.939M765.061 -209.795H808.977M765.061 -209.795V-165.882M808.977 -255V-209.795M808.977 -255H854.184M808.977 -209.795H854.184M808.977 -209.795V-165.882M854.184 -255V-209.795M854.184 -255H898.1M854.184 -209.795H898.1M854.184 -209.795V-165.882M898.1 -255V-209.795M898.1 -255H942.015M898.1 -209.795H942.015M898.1 -209.795V-165.882M942.015 -255V-209.795M942.015 -255H985.931M942.015 -209.795H985.931M942.015 -209.795V-165.882M985.931 -255V-209.795M985.931 -255H1031.14M985.931 -209.795H1031.14M985.931 -209.795V-165.882M1031.14 -255V-209.795M1031.14 -255H1075.05M1031.14 -209.795H1075.05M1031.14 -209.795V-165.882M1075.05 -255V-209.795M1075.05 -255H1118.97M1075.05 -209.795H1118.97M1075.05 -209.795V-165.882M1118.97 -255V-209.795M1118.97 -255H1164.18M1118.97 -209.795H1164.18M1118.97 -209.795V-165.882M1164.18 -255V-209.795M1164.18 -255H1208.09M1164.18 -209.795H1208.09M1164.18 -209.795V-165.882M1208.09 -255V-209.795M1208.09 -255H1252.01M1208.09 -209.795H1252.01M1208.09 -209.795V-165.882M1252.01 -255V-209.795M1252.01 -255H1295.92M1252.01 -209.795H1295.92M1252.01 -209.795V-165.882M1295.92 -255V-209.795M1295.92 -255H1341.13M1295.92 -209.795H1341.13M1295.92 -209.795V-165.882M1341.13 -255V-209.795M1341.13 -255H1385.05M1341.13 -209.795H1385.05M1341.13 -209.795V-165.882M1385.05 -255V-209.795M1385.05 -255H1428.96M1385.05 -209.795H1428.96M1385.05 -209.795V-165.882M1428.96 -255V-209.795M1428.96 -255H1472.88M1428.96 -209.795H1472.88M1428.96 -209.795V-165.882M1472.88 -255V-209.795M1472.88 -255H1518.08M1472.88 -209.795H1518.08M1472.88 -209.795V-165.882M1518.08 -255V-209.795M1518.08 -255H1562V-209.795M1518.08 -209.795H1562M1518.08 -209.795V-165.882M1562 -209.795V-165.882M721.146 -165.882H765.061M721.146 -165.882V-121.968M721.146 -165.882H675.939M765.061 -165.882H808.977M765.061 -165.882V-121.968M808.977 -165.882H854.184M808.977 -165.882V-121.968M854.184 -165.882H898.1M854.184 -165.882V-121.968M898.1 -165.882H942.015M898.1 -165.882V-121.968M942.015 -165.882H985.931M942.015 -165.882V-121.968M985.931 -165.882H1031.14M985.931 -165.882V-121.968M1031.14 -165.882H1075.05M1031.14 -165.882V-121.968M1075.05 -165.882H1118.97M1075.05 -165.882V-121.968M1118.97 -165.882H1164.18M1118.97 -165.882V-121.968M1164.18 -165.882H1208.09M1164.18 -165.882V-121.968M1208.09 -165.882H1252.01M1208.09 -165.882V-121.968M1252.01 -165.882H1295.92M1252.01 -165.882V-121.968M1295.92 -165.882H1341.13M1295.92 -165.882V-121.968M1341.13 -165.882H1385.05M1341.13 -165.882V-121.968M1385.05 -165.882H1428.96M1385.05 -165.882V-121.968M1428.96 -165.882H1472.88M1428.96 -165.882V-121.968M1472.88 -165.882H1518.08M1472.88 -165.882V-121.968M1518.08 -165.882H1562M1518.08 -165.882V-121.968M1562 -165.882V-121.968M721.146 -121.968H765.061M721.146 -121.968V-76.7636M721.146 -121.968H675.939M765.061 -121.968H808.977M765.061 -121.968V-76.7636M808.977 -121.968H854.184M808.977 -121.968V-76.7636M854.184 -121.968H898.1M854.184 -121.968V-76.7636M898.1 -121.968H942.015M898.1 -121.968V-76.7636M942.015 -121.968H985.931M942.015 -121.968V-76.7636M985.931 -121.968H1031.14M985.931 -121.968V-76.7636M1031.14 -121.968H1075.05M1031.14 -121.968V-76.7636M1075.05 -121.968H1118.97M1075.05 -121.968V-76.7636M1118.97 -121.968H1164.18M1118.97 -121.968V-76.7636M1164.18 -121.968H1208.09M1164.18 -121.968V-76.7636M1208.09 -121.968H1252.01M1208.09 -121.968V-76.7636M1252.01 -121.968H1295.92M1252.01 -121.968V-76.7636M1295.92 -121.968H1341.13M1295.92 -121.968V-76.7636M1341.13 -121.968H1385.05M1341.13 -121.968V-76.7636M1385.05 -121.968H1428.96M1385.05 -121.968V-76.7636M1428.96 -121.968H1472.88M1428.96 -121.968V-76.7636M1472.88 -121.968H1518.08M1472.88 -121.968V-76.7636M1518.08 -121.968H1562M1518.08 -121.968V-76.7636M1562 -121.968V-76.7636M721.146 -76.7636H765.061M721.146 -76.7636V-32.8503M721.146 -76.7636H675.939M765.061 -76.7636H808.977M765.061 -76.7636V-32.8503M808.977 -76.7636H854.184M808.977 -76.7636V-32.8503M854.184 -76.7636H898.1M854.184 -76.7636V-32.8503M898.1 -76.7636H942.015M898.1 -76.7636V-32.8503M942.015 -76.7636H985.931M942.015 -76.7636V-32.8503M985.931 -76.7636H1031.14M985.931 -76.7636V-32.8503M1031.14 -76.7636H1075.05M1031.14 -76.7636V-32.8503M1075.05 -76.7636H1118.97M1075.05 -76.7636V-32.8503M1118.97 -76.7636H1164.18M1118.97 -76.7636V-32.8503M1164.18 -76.7636H1208.09M1164.18 -76.7636V-32.8503M1208.09 -76.7636H1252.01M1208.09 -76.7636V-32.8503M1252.01 -76.7636H1295.92M1252.01 -76.7636V-32.8503M1295.92 -76.7636H1341.13M1295.92 -76.7636V-32.8503M1341.13 -76.7636H1385.05M1341.13 -76.7636V-32.8503M1385.05 -76.7636H1428.96M1385.05 -76.7636V-32.8503M1428.96 -76.7636H1472.88M1428.96 -76.7636V-32.8503M1472.88 -76.7636H1518.08M1472.88 -76.7636V-32.8503M1518.08 -76.7636H1562M1518.08 -76.7636V-32.8503M1562 -76.7636V-32.8503M721.146 -32.8503H765.061M721.146 -32.8503V11.063M721.146 -32.8503H675.939M765.061 -32.8503H808.977M765.061 -32.8503V11.063M808.977 -32.8503H854.184M808.977 -32.8503V11.063M854.184 -32.8503H898.1M854.184 -32.8503V11.063M898.1 -32.8503H942.015M898.1 -32.8503V11.063M942.015 -32.8503H985.931M942.015 -32.8503V11.063M985.931 -32.8503H1031.14M985.931 -32.8503V11.063M1031.14 -32.8503H1075.05M1031.14 -32.8503V11.063M1075.05 -32.8503H1118.97M1075.05 -32.8503V11.063M1118.97 -32.8503H1164.18M1118.97 -32.8503V11.063M1164.18 -32.8503H1208.09M1164.18 -32.8503V11.063M1208.09 -32.8503H1252.01M1208.09 -32.8503V11.063M1252.01 -32.8503H1295.92M1252.01 -32.8503V11.063M1295.92 -32.8503H1341.13M1295.92 -32.8503V11.063M1341.13 -32.8503H1385.05M1341.13 -32.8503V11.063M1385.05 -32.8503H1428.96M1385.05 -32.8503V11.063M1428.96 -32.8503H1472.88M1428.96 -32.8503V11.063M1472.88 -32.8503H1518.08M1472.88 -32.8503V11.063M1518.08 -32.8503H1562M1518.08 -32.8503V11.063M1562 -32.8503V11.063M721.146 11.063H765.061M721.146 11.063V56.2679M721.146 11.063H675.939M765.061 11.063H808.977M765.061 11.063V56.2679M808.977 11.063H854.184M808.977 11.063V56.2679M854.184 11.063H898.1M854.184 11.063V56.2679M898.1 11.063H942.015M898.1 11.063V56.2679M942.015 11.063H985.931M942.015 11.063V56.2679M985.931 11.063H1031.14M985.931 11.063V56.2679M1031.14 11.063H1075.05M1031.14 11.063V56.2679M1075.05 11.063H1118.97M1075.05 11.063V56.2679M1118.97 11.063H1164.18M1118.97 11.063V56.2679M1164.18 11.063H1208.09M1164.18 11.063V56.2679M1208.09 11.063H1252.01M1208.09 11.063V56.2679M1252.01 11.063H1295.92M1252.01 11.063V56.2679M1295.92 11.063H1341.13M1295.92 11.063V56.2679M1341.13 11.063H1385.05M1341.13 11.063V56.2679M1385.05 11.063H1428.96M1385.05 11.063V56.2679M1428.96 11.063H1472.88M1428.96 11.063V56.2679M1472.88 11.063H1518.08M1472.88 11.063V56.2679M1518.08 11.063H1562M1518.08 11.063V56.2679M1562 11.063V56.2679M721.146 56.2679H765.061M721.146 56.2679V100.181M721.146 56.2679H675.939M765.061 56.2679H808.977M765.061 56.2679V100.181M808.977 56.2679H854.184M808.977 56.2679V100.181M854.184 56.2679H898.1M854.184 56.2679V100.181M898.1 56.2679H942.015M898.1 56.2679V100.181M942.015 56.2679H985.931M942.015 56.2679V100.181M985.931 56.2679H1031.14M985.931 56.2679V100.181M1031.14 56.2679H1075.05M1031.14 56.2679V100.181M1075.05 56.2679H1118.97M1075.05 56.2679V100.181M1118.97 56.2679H1164.18M1118.97 56.2679V100.181M1164.18 56.2679H1208.09M1164.18 56.2679V100.181M1208.09 56.2679H1252.01M1208.09 56.2679V100.181M1252.01 56.2679H1295.92M1252.01 56.2679V100.181M1295.92 56.2679H1341.13M1295.92 56.2679V100.181M1341.13 56.2679H1385.05M1341.13 56.2679V100.181M1385.05 56.2679H1428.96M1385.05 56.2679V100.181M1428.96 56.2679H1472.88M1428.96 56.2679V100.181M1472.88 56.2679H1518.08M1472.88 56.2679V100.181M1518.08 56.2679H1562M1518.08 56.2679V100.181M1562 56.2679V100.181M721.146 100.181H765.061M721.146 100.181V144.095M721.146 100.181H675.939M765.061 100.181H808.977M765.061 100.181V144.095M808.977 100.181H854.184M808.977 100.181V144.095M854.184 100.181H898.1M854.184 100.181V144.095M898.1 100.181H942.015M898.1 100.181V144.095M942.015 100.181H985.931M942.015 100.181V144.095M985.931 100.181H1031.14M985.931 100.181V144.095M1031.14 100.181H1075.05M1031.14 100.181V144.095M1075.05 100.181H1118.97M1075.05 100.181V144.095M1118.97 100.181H1164.18M1118.97 100.181V144.095M1164.18 100.181H1208.09M1164.18 100.181V144.095M1208.09 100.181H1252.01M1208.09 100.181V144.095M1252.01 100.181H1295.92M1252.01 100.181V144.095M1295.92 100.181H1341.13M1295.92 100.181V144.095M1341.13 100.181H1385.05M1341.13 100.181V144.095M1385.05 100.181H1428.96M1385.05 100.181V144.095M1428.96 100.181H1472.88M1428.96 100.181V144.095M1472.88 100.181H1518.08M1472.88 100.181V144.095M1518.08 100.181H1562M1518.08 100.181V144.095M1562 100.181V144.095M721.146 144.095H765.061M721.146 144.095V188.008M721.146 144.095H675.939M765.061 144.095H808.977M765.061 144.095V188.008M808.977 144.095H854.184M808.977 144.095V188.008M854.184 144.095H898.1M854.184 144.095V188.008M898.1 144.095H942.015M898.1 144.095V188.008M942.015 144.095H985.931M942.015 144.095V188.008M985.931 144.095H1031.14M985.931 144.095V188.008M1031.14 144.095H1075.05M1031.14 144.095V188.008M1075.05 144.095H1118.97M1075.05 144.095V188.008M1118.97 144.095H1164.18M1118.97 144.095V188.008M1164.18 144.095H1208.09M1164.18 144.095V188.008M1208.09 144.095H1252.01M1208.09 144.095V188.008M1252.01 144.095H1295.92M1252.01 144.095V188.008M1295.92 144.095H1341.13M1295.92 144.095V188.008M1341.13 144.095H1385.05M1341.13 144.095V188.008M1385.05 144.095H1428.96M1385.05 144.095V188.008M1428.96 144.095H1472.88M1428.96 144.095V188.008M1472.88 144.095H1518.08M1472.88 144.095V188.008M1518.08 144.095H1562M1518.08 144.095V188.008M1562 144.095V188.008M721.146 188.008H765.061M721.146 188.008V233.213M721.146 188.008H675.939M765.061 188.008H808.977M765.061 188.008V233.213M808.977 188.008H854.184M808.977 188.008V233.213M854.184 188.008H898.1M854.184 188.008V233.213M898.1 188.008H942.015M898.1 188.008V233.213M942.015 188.008H985.931M942.015 188.008V233.213M985.931 188.008H1031.14M985.931 188.008V233.213M1031.14 188.008H1075.05M1031.14 188.008V233.213M1075.05 188.008H1118.97M1075.05 188.008V233.213M1118.97 188.008H1164.18M1118.97 188.008V233.213M1164.18 188.008H1208.09M1164.18 188.008V233.213M1208.09 188.008H1252.01M1208.09 188.008V233.213M1252.01 188.008H1295.92M1252.01 188.008V233.213M1295.92 188.008H1341.13M1295.92 188.008V233.213M1341.13 188.008H1385.05M1341.13 188.008V233.213M1385.05 188.008H1428.96M1385.05 188.008V233.213M1428.96 188.008H1472.88M1428.96 188.008V233.213M1472.88 188.008H1518.08M1472.88 188.008V233.213M1518.08 188.008H1562M1518.08 188.008V233.213M1562 188.008V233.213M721.146 233.213H765.061M721.146 233.213V277.126M721.146 233.213H675.939M765.061 233.213H808.977M765.061 233.213V277.126M808.977 233.213H854.184M808.977 233.213V277.126M854.184 233.213H898.1M854.184 233.213V277.126M898.1 233.213H942.015M898.1 233.213V277.126M942.015 233.213H985.931M942.015 233.213V277.126M985.931 233.213H1031.14M985.931 233.213V277.126M1031.14 233.213H1075.05M1031.14 233.213V277.126M1075.05 233.213H1118.97M1075.05 233.213V277.126M1118.97 233.213H1164.18M1118.97 233.213V277.126M1164.18 233.213H1208.09M1164.18 233.213V277.126M1208.09 233.213H1252.01M1208.09 233.213V277.126M1252.01 233.213H1295.92M1252.01 233.213V277.126M1295.92 233.213H1341.13M1295.92 233.213V277.126M1341.13 233.213H1385.05M1341.13 233.213V277.126M1385.05 233.213H1428.96M1385.05 233.213V277.126M1428.96 233.213H1472.88M1428.96 233.213V277.126M1472.88 233.213H1518.08M1472.88 233.213V277.126M1518.08 233.213H1562M1518.08 233.213V277.126M1562 233.213V277.126M721.146 277.126H765.061M721.146 277.126V321.039M721.146 277.126H675.939M765.061 277.126H808.977M765.061 277.126V321.039M808.977 277.126H854.184M808.977 277.126V321.039M854.184 277.126H898.1M854.184 277.126V321.039M898.1 277.126H942.015M898.1 277.126V321.039M942.015 277.126H985.931M942.015 277.126V321.039M985.931 277.126H1031.14M985.931 277.126V321.039M1031.14 277.126H1075.05M1031.14 277.126V321.039M1075.05 277.126H1118.97M1075.05 277.126V321.039M1118.97 277.126H1164.18M1118.97 277.126V321.039M1164.18 277.126H1208.09M1164.18 277.126V321.039M1208.09 277.126H1252.01M1208.09 277.126V321.039M1252.01 277.126H1295.92M1252.01 277.126V321.039M1295.92 277.126H1341.13M1295.92 277.126V321.039M1341.13 277.126H1385.05M1341.13 277.126V321.039M1385.05 277.126H1428.96M1385.05 277.126V321.039M1428.96 277.126H1472.88M1428.96 277.126V321.039M1472.88 277.126H1518.08M1472.88 277.126V321.039M1518.08 277.126H1562M1518.08 277.126V321.039M1562 277.126V321.039M721.146 321.039H765.061M721.146 321.039V366.244M721.146 321.039H675.939M765.061 321.039H808.977M765.061 321.039V366.244M808.977 321.039H854.184M808.977 321.039V366.244M854.184 321.039H898.1M854.184 321.039V366.244M898.1 321.039H942.015M898.1 321.039V366.244M942.015 321.039H985.931M942.015 321.039V366.244M985.931 321.039H1031.14M985.931 321.039V366.244M1031.14 321.039H1075.05M1031.14 321.039V366.244M1075.05 321.039H1118.97M1075.05 321.039V366.244M1118.97 321.039H1164.18M1118.97 321.039V366.244M1164.18 321.039H1208.09M1164.18 321.039V366.244M1208.09 321.039H1252.01M1208.09 321.039V366.244M1252.01 321.039H1295.92M1252.01 321.039V366.244M1295.92 321.039H1341.13M1295.92 321.039V366.244M1341.13 321.039H1385.05M1341.13 321.039V366.244M1385.05 321.039H1428.96M1385.05 321.039V366.244M1428.96 321.039H1472.88M1428.96 321.039V366.244M1472.88 321.039H1518.08M1472.88 321.039V366.244M1518.08 321.039H1562M1518.08 321.039V366.244M1562 321.039V366.244M721.146 366.244H765.061M721.146 366.244V410.158M721.146 366.244H675.939M765.061 366.244H808.977M765.061 366.244V410.158M808.977 366.244H854.184M808.977 366.244V410.158M854.184 366.244H898.1M854.184 366.244V410.158M898.1 366.244H942.015M898.1 366.244V410.158M942.015 366.244H985.931M942.015 366.244V410.158M985.931 366.244H1031.14M985.931 366.244V410.158M1031.14 366.244H1075.05M1031.14 366.244V410.158M1075.05 366.244H1118.97M1075.05 366.244V410.158M1118.97 366.244H1164.18M1118.97 366.244V410.158M1164.18 366.244H1208.09M1164.18 366.244V410.158M1208.09 366.244H1252.01M1208.09 366.244V410.158M1252.01 366.244H1295.92M1252.01 366.244V410.158M1295.92 366.244H1341.13M1295.92 366.244V410.158M1341.13 366.244H1385.05M1341.13 366.244V410.158M1385.05 366.244H1428.96M1385.05 366.244V410.158M1428.96 366.244H1472.88M1428.96 366.244V410.158M1472.88 366.244H1518.08M1472.88 366.244V410.158M1518.08 366.244H1562M1518.08 366.244V410.158M1562 366.244V410.158M721.146 410.158H765.061M721.146 410.158V454.071M721.146 410.158H675.939M765.061 410.158H808.977M765.061 410.158V454.071M808.977 410.158H854.184M808.977 410.158V454.071M854.184 410.158H898.1M854.184 410.158V454.071M898.1 410.158H942.015M898.1 410.158V454.071M942.015 410.158H985.931M942.015 410.158V454.071M985.931 410.158H1031.14M985.931 410.158V454.071M1031.14 410.158H1075.05M1031.14 410.158V454.071M1075.05 410.158H1118.97M1075.05 410.158V454.071M1118.97 410.158H1164.18M1118.97 410.158V454.071M1164.18 410.158H1208.09M1164.18 410.158V454.071M1208.09 410.158H1252.01M1208.09 410.158V454.071M1252.01 410.158H1295.92M1252.01 410.158V454.071M1295.92 410.158H1341.13M1295.92 410.158V454.071M1341.13 410.158H1385.05M1341.13 410.158V454.071M1385.05 410.158H1428.96M1385.05 410.158V454.071M1428.96 410.158H1472.88M1428.96 410.158V454.071M1472.88 410.158H1518.08M1472.88 410.158V454.071M1518.08 410.158H1562M1518.08 410.158V454.071M1562 410.158V454.071M721.146 454.071H765.061M721.146 454.071V497.984M721.146 454.071H675.939M765.061 454.071H808.977M765.061 454.071V497.984M808.977 454.071H854.184M808.977 454.071V497.984M854.184 454.071H898.1M854.184 454.071V497.984M898.1 454.071H942.015M898.1 454.071V497.984M942.015 454.071H985.931M942.015 454.071V497.984M985.931 454.071H1031.14M985.931 454.071V497.984M1031.14 454.071H1075.05M1031.14 454.071V497.984M1075.05 454.071H1118.97M1075.05 454.071V497.984M1118.97 454.071H1164.18M1118.97 454.071V497.984M1164.18 454.071H1208.09M1164.18 454.071V497.984M1208.09 454.071H1252.01M1208.09 454.071V497.984M1252.01 454.071H1295.92M1252.01 454.071V497.984M1295.92 454.071H1341.13M1295.92 454.071V497.984M1341.13 454.071H1385.05M1341.13 454.071V497.984M1385.05 454.071H1428.96M1385.05 454.071V497.984M1428.96 454.071H1472.88M1428.96 454.071V497.984M1472.88 454.071H1518.08M1472.88 454.071V497.984M1518.08 454.071H1562M1518.08 454.071V497.984M1562 454.071V497.984M721.146 497.984H765.061M721.146 497.984V543.189M721.146 497.984H675.939M765.061 497.984H808.977M765.061 497.984V543.189M808.977 497.984H854.184M808.977 497.984V543.189M854.184 497.984H898.1M854.184 497.984V543.189M898.1 497.984H942.015M898.1 497.984V543.189M942.015 497.984H985.931M942.015 497.984V543.189M985.931 497.984H1031.14M985.931 497.984V543.189M1031.14 497.984H1075.05M1031.14 497.984V543.189M1075.05 497.984H1118.97M1075.05 497.984V543.189M1118.97 497.984H1164.18M1118.97 497.984V543.189M1164.18 497.984H1208.09M1164.18 497.984V543.189M1208.09 497.984H1252.01M1208.09 497.984V543.189M1252.01 497.984H1295.92M1252.01 497.984V543.189M1295.92 497.984H1341.13M1295.92 497.984V543.189M1341.13 497.984H1385.05M1341.13 497.984V543.189M1385.05 497.984H1428.96M1385.05 497.984V543.189M1428.96 497.984H1472.88M1428.96 497.984V543.189M1472.88 497.984H1518.08M1472.88 497.984V543.189M1518.08 497.984H1562M1518.08 497.984V543.189M1562 497.984V543.189M721.146 543.189H765.061M721.146 543.189V587.102M721.146 543.189H675.939M765.061 543.189H808.977M765.061 543.189V587.102M808.977 543.189H854.184M808.977 543.189V587.102M854.184 543.189H898.1M854.184 543.189V587.102M898.1 543.189H942.015M898.1 543.189V587.102M942.015 543.189H985.931M942.015 543.189V587.102M985.931 543.189H1031.14M985.931 543.189V587.102M1031.14 543.189H1075.05M1031.14 543.189V587.102M1075.05 543.189H1118.97M1075.05 543.189V587.102M1118.97 543.189H1164.18M1118.97 543.189V587.102M1164.18 543.189H1208.09M1164.18 543.189V587.102M1208.09 543.189H1252.01M1208.09 543.189V587.102M1252.01 543.189H1295.92M1252.01 543.189V587.102M1295.92 543.189H1341.13M1295.92 543.189V587.102M1341.13 543.189H1385.05M1341.13 543.189V587.102M1385.05 543.189H1428.96M1385.05 543.189V587.102M1428.96 543.189H1472.88M1428.96 543.189V587.102M1472.88 543.189H1518.08M1472.88 543.189V587.102M1518.08 543.189H1562M1518.08 543.189V587.102M1562 543.189V587.102M721.146 587.102H765.061M721.146 587.102V631.016M721.146 587.102H675.939M765.061 587.102H808.977M765.061 587.102V631.016M808.977 587.102H854.184M808.977 587.102V631.016M854.184 587.102H898.1M854.184 587.102V631.016M898.1 587.102H942.015M898.1 587.102V631.016M942.015 587.102H985.931M942.015 587.102V631.016M985.931 587.102H1031.14M985.931 587.102V631.016M1031.14 587.102H1075.05M1031.14 587.102V631.016M1075.05 587.102H1118.97M1075.05 587.102V631.016M1118.97 587.102H1164.18M1118.97 587.102V631.016M1164.18 587.102H1208.09M1164.18 587.102V631.016M1208.09 587.102H1252.01M1208.09 587.102V631.016M1252.01 587.102H1295.92M1252.01 587.102V631.016M1295.92 587.102H1341.13M1295.92 587.102V631.016M1341.13 587.102H1385.05M1341.13 587.102V631.016M1385.05 587.102H1428.96M1385.05 587.102V631.016M1428.96 587.102H1472.88M1428.96 587.102V631.016M1472.88 587.102H1518.08M1472.88 587.102V631.016M1518.08 587.102H1562M1518.08 587.102V631.016M1562 587.102V631.016M721.146 631.016H765.061M721.146 631.016V676.221M721.146 631.016H675.939M765.061 631.016H808.977M765.061 631.016V676.221M808.977 631.016H854.184M808.977 631.016V676.221M854.184 631.016H898.1M854.184 631.016V676.221M898.1 631.016H942.015M898.1 631.016V676.221M942.015 631.016H985.931M942.015 631.016V676.221M985.931 631.016H1031.14M985.931 631.016V676.221M1031.14 631.016H1075.05M1031.14 631.016V676.221M1075.05 631.016H1118.97M1075.05 631.016V676.221M1118.97 631.016H1164.18M1118.97 631.016V676.221M1164.18 631.016H1208.09M1164.18 631.016V676.221M1208.09 631.016H1252.01M1208.09 631.016V676.221M1252.01 631.016H1295.92M1252.01 631.016V676.221M1295.92 631.016H1341.13M1295.92 631.016V676.221M1341.13 631.016H1385.05M1341.13 631.016V676.221M1385.05 631.016H1428.96M1385.05 631.016V676.221M1428.96 631.016H1472.88M1428.96 631.016V676.221M1472.88 631.016H1518.08M1472.88 631.016V676.221M1518.08 631.016H1562M1518.08 631.016V676.221M1562 631.016V676.221M721.146 676.221H765.061M721.146 676.221V720.134M721.146 676.221H675.939M765.061 676.221H808.977M765.061 676.221V720.134M808.977 676.221H854.184M808.977 676.221V720.134M854.184 676.221H898.1M854.184 676.221V720.134M898.1 676.221H942.015M898.1 676.221V720.134M942.015 676.221H985.931M942.015 676.221V720.134M985.931 676.221H1031.14M985.931 676.221V720.134M1031.14 676.221H1075.05M1031.14 676.221V720.134M1075.05 676.221H1118.97M1075.05 676.221V720.134M1118.97 676.221H1164.18M1118.97 676.221V720.134M1164.18 676.221H1208.09M1164.18 676.221V720.134M1208.09 676.221H1252.01M1208.09 676.221V720.134M1252.01 676.221H1295.92M1252.01 676.221V720.134M1295.92 676.221H1341.13M1295.92 676.221V720.134M1341.13 676.221H1385.05M1341.13 676.221V720.134M1385.05 676.221H1428.96M1385.05 676.221V720.134M1428.96 676.221H1472.88M1428.96 676.221V720.134M1472.88 676.221H1518.08M1472.88 676.221V720.134M1518.08 676.221H1562M1518.08 676.221V720.134M1562 676.221V720.134M721.146 720.134H765.061M721.146 720.134V764.047M721.146 720.134H675.939M765.061 720.134H808.977M765.061 720.134V764.047M808.977 720.134H854.184M808.977 720.134V764.047M854.184 720.134H898.1M854.184 720.134V764.047M898.1 720.134H942.015M898.1 720.134V764.047M942.015 720.134H985.931M942.015 720.134V764.047M985.931 720.134H1031.14M985.931 720.134V764.047M1031.14 720.134H1075.05M1031.14 720.134V764.047M1075.05 720.134H1118.97M1075.05 720.134V764.047M1118.97 720.134H1164.18M1118.97 720.134V764.047M1164.18 720.134H1208.09M1164.18 720.134V764.047M1208.09 720.134H1252.01M1208.09 720.134V764.047M1252.01 720.134H1295.92M1252.01 720.134V764.047M1295.92 720.134H1341.13M1295.92 720.134V764.047M1341.13 720.134H1385.05M1341.13 720.134V764.047M1385.05 720.134H1428.96M1385.05 720.134V764.047M1428.96 720.134H1472.88M1428.96 720.134V764.047M1472.88 720.134H1518.08M1472.88 720.134V764.047M1518.08 720.134H1562M1518.08 720.134V764.047M1562 720.134V764.047M721.146 764.047H765.061M721.146 764.047V809.252M721.146 764.047H675.939M765.061 764.047H808.977M765.061 764.047V809.252M808.977 764.047H854.184M808.977 764.047V809.252M854.184 764.047H898.1M854.184 764.047V809.252M898.1 764.047H942.015M898.1 764.047V809.252M942.015 764.047H985.931M942.015 764.047V809.252M985.931 764.047H1031.14M985.931 764.047V809.252M1031.14 764.047H1075.05M1031.14 764.047V809.252M1075.05 764.047H1118.97M1075.05 764.047V809.252M1118.97 764.047H1164.18M1118.97 764.047V809.252M1164.18 764.047H1208.09M1164.18 764.047V809.252M1208.09 764.047H1252.01M1208.09 764.047V809.252M1252.01 764.047H1295.92M1252.01 764.047V809.252M1295.92 764.047H1341.13M1295.92 764.047V809.252M1341.13 764.047H1385.05M1341.13 764.047V809.252M1385.05 764.047H1428.96M1385.05 764.047V809.252M1428.96 764.047H1472.88M1428.96 764.047V809.252M1472.88 764.047H1518.08M1472.88 764.047V809.252M1518.08 764.047H1562M1518.08 764.047V809.252M1562 764.047V809.252M721.146 809.252H765.061M721.146 809.252V853.165M721.146 809.252H675.939M765.061 809.252H808.977M765.061 809.252V853.165M808.977 809.252H854.184M808.977 809.252V853.165M854.184 809.252H898.1M854.184 809.252V853.165M898.1 809.252H942.015M898.1 809.252V853.165M942.015 809.252H985.931M942.015 809.252V853.165M985.931 809.252H1031.14M985.931 809.252V853.165M1031.14 809.252H1075.05M1031.14 809.252V853.165M1075.05 809.252H1118.97M1075.05 809.252V853.165M1118.97 809.252H1164.18M1118.97 809.252V853.165M1164.18 809.252H1208.09M1164.18 809.252V853.165M1208.09 809.252H1252.01M1208.09 809.252V853.165M1252.01 809.252H1295.92M1252.01 809.252V853.165M1295.92 809.252H1341.13M1295.92 809.252V853.165M1341.13 809.252H1385.05M1341.13 809.252V853.165M1385.05 809.252H1428.96M1385.05 809.252V853.165M1428.96 809.252H1472.88M1428.96 809.252V853.165M1472.88 809.252H1518.08M1472.88 809.252V853.165M1518.08 809.252H1562M1518.08 809.252V853.165M1562 809.252V853.165M721.146 853.165H765.061M721.146 853.165V897.079M721.146 853.165H675.939M765.061 853.165H808.977M765.061 853.165V897.079M808.977 853.165H854.184M808.977 853.165V897.079M854.184 853.165H898.1M854.184 853.165V897.079M898.1 853.165H942.015M898.1 853.165V897.079M942.015 853.165H985.931M942.015 853.165V897.079M985.931 853.165H1031.14M985.931 853.165V897.079M1031.14 853.165H1075.05M1031.14 853.165V897.079M1075.05 853.165H1118.97M1075.05 853.165V897.079M1118.97 853.165H1164.18M1118.97 853.165V897.079M1164.18 853.165H1208.09M1164.18 853.165V897.079M1208.09 853.165H1252.01M1208.09 853.165V897.079M1252.01 853.165H1295.92M1252.01 853.165V897.079M1295.92 853.165H1341.13M1295.92 853.165V897.079M1341.13 853.165H1385.05M1341.13 853.165V897.079M1385.05 853.165H1428.96M1385.05 853.165V897.079M1428.96 853.165H1472.88M1428.96 853.165V897.079M1472.88 853.165H1518.08M1472.88 853.165V897.079M1518.08 853.165H1562M1518.08 853.165V897.079M1562 853.165V897.079M721.146 897.079H765.061M721.146 897.079V940.992M721.146 897.079H675.939M765.061 897.079H808.977M765.061 897.079V940.992M808.977 897.079H854.184M808.977 897.079V940.992M854.184 897.079H898.1M854.184 897.079V940.992M898.1 897.079H942.015M898.1 897.079V940.992M942.015 897.079H985.931M942.015 897.079V940.992M985.931 897.079H1031.14M985.931 897.079V940.992M1031.14 897.079H1075.05M1031.14 897.079V940.992M1075.05 897.079H1118.97M1075.05 897.079V940.992M1118.97 897.079H1164.18M1118.97 897.079V940.992M1164.18 897.079H1208.09M1164.18 897.079V940.992M1208.09 897.079H1252.01M1208.09 897.079V940.992M1252.01 897.079H1295.92M1252.01 897.079V940.992M1295.92 897.079H1341.13M1295.92 897.079V940.992M1341.13 897.079H1385.05M1341.13 897.079V940.992M1385.05 897.079H1428.96M1385.05 897.079V940.992M1428.96 897.079H1472.88M1428.96 897.079V940.992M1472.88 897.079H1518.08M1472.88 897.079V940.992M1518.08 897.079H1562M1518.08 897.079V940.992M1562 897.079V940.992M721.146 940.992H765.061M721.146 940.992V986.197M721.146 940.992H675.939M765.061 940.992H808.977M765.061 940.992V986.197M808.977 940.992H854.184M808.977 940.992V986.197M854.184 940.992H898.1M854.184 940.992V986.197M898.1 940.992H942.015M898.1 940.992V986.197M942.015 940.992H985.931M942.015 940.992V986.197M985.931 940.992H1031.14M985.931 940.992V986.197M1031.14 940.992H1075.05M1031.14 940.992V986.197M1075.05 940.992H1118.97M1075.05 940.992V986.197M1118.97 940.992H1164.18M1118.97 940.992V986.197M1164.18 940.992H1208.09M1164.18 940.992V986.197M1208.09 940.992H1252.01M1208.09 940.992V986.197M1252.01 940.992H1295.92M1252.01 940.992V986.197M1295.92 940.992H1341.13M1295.92 940.992V986.197M1341.13 940.992H1385.05M1341.13 940.992V986.197M1385.05 940.992H1428.96M1385.05 940.992V986.197M1428.96 940.992H1472.88M1428.96 940.992V986.197M1472.88 940.992H1518.08M1472.88 940.992V986.197M1518.08 940.992H1562M1518.08 940.992V986.197M1562 940.992V986.197M721.146 986.197H765.061M721.146 986.197V1030.11M721.146 986.197H675.939M765.061 986.197H808.977M765.061 986.197V1030.11M808.977 986.197H854.184M808.977 986.197V1030.11M854.184 986.197H898.1M854.184 986.197V1030.11M898.1 986.197H942.015M898.1 986.197V1030.11M942.015 986.197H985.931M942.015 986.197V1030.11M985.931 986.197H1031.14M985.931 986.197V1030.11M1031.14 986.197H1075.05M1031.14 986.197V1030.11M1075.05 986.197H1118.97M1075.05 986.197V1030.11M1118.97 986.197H1164.18M1118.97 986.197V1030.11M1164.18 986.197H1208.09M1164.18 986.197V1030.11M1208.09 986.197H1252.01M1208.09 986.197V1030.11M1252.01 986.197H1295.92M1252.01 986.197V1030.11M1295.92 986.197H1341.13M1295.92 986.197V1030.11M1341.13 986.197H1385.05M1341.13 986.197V1030.11M1385.05 986.197H1428.96M1385.05 986.197V1030.11M1428.96 986.197H1472.88M1428.96 986.197V1030.11M1472.88 986.197H1518.08M1472.88 986.197V1030.11M1518.08 986.197H1562M1518.08 986.197V1030.11M1562 986.197V1030.11M721.146 1030.11H765.061M721.146 1030.11V1074.02M721.146 1030.11H675.939M765.061 1030.11H808.977M765.061 1030.11V1074.02M808.977 1030.11H854.184M808.977 1030.11V1074.02M854.184 1030.11H898.1M854.184 1030.11V1074.02M898.1 1030.11H942.015M898.1 1030.11V1074.02M942.015 1030.11H985.931M942.015 1030.11V1074.02M985.931 1030.11H1031.14M985.931 1030.11V1074.02M1031.14 1030.11H1075.05M1031.14 1030.11V1074.02M1075.05 1030.11H1118.97M1075.05 1030.11V1074.02M1118.97 1030.11H1164.18M1118.97 1030.11V1074.02M1164.18 1030.11H1208.09M1164.18 1030.11V1074.02M1208.09 1030.11H1252.01M1208.09 1030.11V1074.02M1252.01 1030.11H1295.92M1252.01 1030.11V1074.02M1295.92 1030.11H1341.13M1295.92 1030.11V1074.02M1341.13 1030.11H1385.05M1341.13 1030.11V1074.02M1385.05 1030.11H1428.96M1385.05 1030.11V1074.02M1428.96 1030.11H1472.88M1428.96 1030.11V1074.02M1472.88 1030.11H1518.08M1472.88 1030.11V1074.02M1518.08 1030.11H1562M1518.08 1030.11V1074.02M1562 1030.11V1074.02M721.146 1074.02H765.061M721.146 1074.02V1119.23M721.146 1074.02H675.939M765.061 1074.02H808.977M765.061 1074.02V1119.23M808.977 1074.02H854.184M808.977 1074.02V1119.23M854.184 1074.02H898.1M854.184 1074.02V1119.23M898.1 1074.02H942.015M898.1 1074.02V1119.23M942.015 1074.02H985.931M942.015 1074.02V1119.23M985.931 1074.02H1031.14M985.931 1074.02V1119.23M1031.14 1074.02H1075.05M1031.14 1074.02V1119.23M1075.05 1074.02H1118.97M1075.05 1074.02V1119.23M1118.97 1074.02H1164.18M1118.97 1074.02V1119.23M1164.18 1074.02H1208.09M1164.18 1074.02V1119.23M1208.09 1074.02H1252.01M1208.09 1074.02V1119.23M1252.01 1074.02H1295.92M1252.01 1074.02V1119.23M1295.92 1074.02H1341.13M1295.92 1074.02V1119.23M1341.13 1074.02H1385.05M1341.13 1074.02V1119.23M1385.05 1074.02H1428.96M1385.05 1074.02V1119.23M1428.96 1074.02H1472.88M1428.96 1074.02V1119.23M1472.88 1074.02H1518.08M1472.88 1074.02V1119.23M1518.08 1074.02H1562M1518.08 1074.02V1119.23M1562 1074.02V1119.23M721.146 1119.23H765.061M721.146 1119.23V1163.14M721.146 1119.23H675.939M765.061 1119.23H808.977M765.061 1119.23V1163.14M808.977 1119.23H854.184M808.977 1119.23V1163.14M854.184 1119.23H898.1M854.184 1119.23V1163.14M898.1 1119.23H942.015M898.1 1119.23V1163.14M942.015 1119.23H985.931M942.015 1119.23V1163.14M985.931 1119.23H1031.14M985.931 1119.23V1163.14M1031.14 1119.23H1075.05M1031.14 1119.23V1163.14M1075.05 1119.23H1118.97M1075.05 1119.23V1163.14M1118.97 1119.23H1164.18M1118.97 1119.23V1163.14M1164.18 1119.23H1208.09M1164.18 1119.23V1163.14M1208.09 1119.23H1252.01M1208.09 1119.23V1163.14M1252.01 1119.23H1295.92M1252.01 1119.23V1163.14M1295.92 1119.23H1341.13M1295.92 1119.23V1163.14M1341.13 1119.23H1385.05M1341.13 1119.23V1163.14M1385.05 1119.23H1428.96M1385.05 1119.23V1163.14M1428.96 1119.23H1472.88M1428.96 1119.23V1163.14M1472.88 1119.23H1518.08M1472.88 1119.23V1163.14M1518.08 1119.23H1562M1518.08 1119.23V1163.14M1562 1119.23V1163.14M721.146 1163.14H765.061M721.146 1163.14V1207.06M721.146 1163.14H675.939M765.061 1163.14H808.977M765.061 1163.14V1207.06M808.977 1163.14H854.184M808.977 1163.14V1207.06M854.184 1163.14H898.1M854.184 1163.14V1207.06M898.1 1163.14H942.015M898.1 1163.14V1207.06M942.015 1163.14H985.931M942.015 1163.14V1207.06M985.931 1163.14H1031.14M985.931 1163.14V1207.06M1031.14 1163.14H1075.05M1031.14 1163.14V1207.06M1075.05 1163.14H1118.97M1075.05 1163.14V1207.06M1118.97 1163.14H1164.18M1118.97 1163.14V1207.06M1164.18 1163.14H1208.09M1164.18 1163.14V1207.06M1208.09 1163.14H1252.01M1208.09 1163.14V1207.06M1252.01 1163.14H1295.92M1252.01 1163.14V1207.06M1295.92 1163.14H1341.13M1295.92 1163.14V1207.06M1341.13 1163.14H1385.05M1341.13 1163.14V1207.06M1385.05 1163.14H1428.96M1385.05 1163.14V1207.06M1428.96 1163.14H1472.88M1428.96 1163.14V1207.06M1472.88 1163.14H1518.08M1472.88 1163.14V1207.06M1518.08 1163.14H1562M1518.08 1163.14V1207.06M1562 1163.14V1207.06M721.146 1207.06H765.061M721.146 1207.06V1252.26M721.146 1207.06H675.939M765.061 1207.06H808.977M765.061 1207.06V1252.26M808.977 1207.06H854.184M808.977 1207.06V1252.26M854.184 1207.06H898.1M854.184 1207.06V1252.26M898.1 1207.06H942.015M898.1 1207.06V1252.26M942.015 1207.06H985.931M942.015 1207.06V1252.26M985.931 1207.06H1031.14M985.931 1207.06V1252.26M1031.14 1207.06H1075.05M1031.14 1207.06V1252.26M1075.05 1207.06H1118.97M1075.05 1207.06V1252.26M1118.97 1207.06H1164.18M1118.97 1207.06V1252.26M1164.18 1207.06H1208.09M1164.18 1207.06V1252.26M1208.09 1207.06H1252.01M1208.09 1207.06V1252.26M1252.01 1207.06H1295.92M1252.01 1207.06V1252.26M1295.92 1207.06H1341.13M1295.92 1207.06V1252.26M1341.13 1207.06H1385.05M1341.13 1207.06V1252.26M1385.05 1207.06H1428.96M1385.05 1207.06V1252.26M1428.96 1207.06H1472.88M1428.96 1207.06V1252.26M1472.88 1207.06H1518.08M1472.88 1207.06V1252.26M1518.08 1207.06H1562M1518.08 1207.06V1252.26M1562 1207.06V1252.26M721.146 1252.26H765.061M721.146 1252.26V1296.17M721.146 1252.26H675.939M765.061 1252.26H808.977M765.061 1252.26V1296.17M808.977 1252.26H854.184M808.977 1252.26V1296.17M854.184 1252.26H898.1M854.184 1252.26V1296.17M898.1 1252.26H942.015M898.1 1252.26V1296.17M942.015 1252.26H985.931M942.015 1252.26V1296.17M985.931 1252.26H1031.14M985.931 1252.26V1296.17M1031.14 1252.26H1075.05M1031.14 1252.26V1296.17M1075.05 1252.26H1118.97M1075.05 1252.26V1296.17M1118.97 1252.26H1164.18M1118.97 1252.26V1296.17M1164.18 1252.26H1208.09M1164.18 1252.26V1296.17M1208.09 1252.26H1252.01M1208.09 1252.26V1296.17M1252.01 1252.26H1295.92M1252.01 1252.26V1296.17M1295.92 1252.26H1341.13M1295.92 1252.26V1296.17M1341.13 1252.26H1385.05M1341.13 1252.26V1296.17M1385.05 1252.26H1428.96M1385.05 1252.26V1296.17M1428.96 1252.26H1472.88M1428.96 1252.26V1296.17M1472.88 1252.26H1518.08M1472.88 1252.26V1296.17M1518.08 1252.26H1562M1518.08 1252.26V1296.17M1562 1252.26V1296.17M721.146 1296.17H765.061M721.146 1296.17V1340.09M721.146 1296.17H675.939M765.061 1296.17H808.977M765.061 1296.17V1340.09M808.977 1296.17H854.184M808.977 1296.17V1340.09M854.184 1296.17H898.1M854.184 1296.17V1340.09M898.1 1296.17H942.015M898.1 1296.17V1340.09M942.015 1296.17H985.931M942.015 1296.17V1340.09M985.931 1296.17H1031.14M985.931 1296.17V1340.09M1031.14 1296.17H1075.05M1031.14 1296.17V1340.09M1075.05 1296.17H1118.97M1075.05 1296.17V1340.09M1118.97 1296.17H1164.18M1118.97 1296.17V1340.09M1164.18 1296.17H1208.09M1164.18 1296.17V1340.09M1208.09 1296.17H1252.01M1208.09 1296.17V1340.09M1252.01 1296.17H1295.92M1252.01 1296.17V1340.09M1295.92 1296.17H1341.13M1295.92 1296.17V1340.09M1341.13 1296.17H1385.05M1341.13 1296.17V1340.09M1385.05 1296.17H1428.96M1385.05 1296.17V1340.09M1428.96 1296.17H1472.88M1428.96 1296.17V1340.09M1472.88 1296.17H1518.08M1472.88 1296.17V1340.09M1518.08 1296.17H1562M1518.08 1296.17V1340.09M1562 1296.17V1340.09M721.146 1340.09H765.061M721.146 1340.09V1384M721.146 1340.09H675.939M765.061 1340.09H808.977M765.061 1340.09V1384M808.977 1340.09H854.184M808.977 1340.09V1384M854.184 1340.09H898.1M854.184 1340.09V1384M898.1 1340.09H942.015M898.1 1340.09V1384M942.015 1340.09H985.931M942.015 1340.09V1384M985.931 1340.09H1031.14M985.931 1340.09V1384M1031.14 1340.09H1075.05M1031.14 1340.09V1384M1075.05 1340.09H1118.97M1075.05 1340.09V1384M1118.97 1340.09H1164.18M1118.97 1340.09V1384M1164.18 1340.09H1208.09M1164.18 1340.09V1384M1208.09 1340.09H1252.01M1208.09 1340.09V1384M1252.01 1340.09H1295.92M1252.01 1340.09V1384M1295.92 1340.09H1341.13M1295.92 1340.09V1384M1341.13 1340.09H1385.05M1341.13 1340.09V1384M1385.05 1340.09H1428.96M1385.05 1340.09V1384M1428.96 1340.09H1472.88M1428.96 1340.09V1384M1472.88 1340.09H1518.08M1472.88 1340.09V1384M1518.08 1340.09H1562M1518.08 1340.09V1384M1562 1340.09V1384H1518.08M721.146 1384H765.061M721.146 1384H675.939M765.061 1384H808.977M808.977 1384H854.184M854.184 1384H898.1M898.1 1384H942.015M942.015 1384H985.931M985.931 1384H1031.14M1031.14 1384H1075.05M1075.05 1384H1118.97M1118.97 1384H1164.18M1164.18 1384H1208.09M1208.09 1384H1252.01M1252.01 1384H1295.92M1295.92 1384H1341.13M1341.13 1384H1385.05M1385.05 1384H1428.96M1428.96 1384H1472.88M1472.88 1384H1518.08M-75.7928 -255H-121V-209.795M-75.7928 -255V-209.795M-75.7928 -255H-31.8772M-121 -209.795H-75.7928M-121 -209.795V-165.882M-75.7928 -209.795H-31.8772M-75.7928 -209.795V-165.882M-31.8772 -255V-209.795M-31.8772 -255H12.0384M-31.8772 -209.795H12.0384M-31.8772 -209.795V-165.882M12.0384 -255V-209.795M12.0384 -255H57.2456M12.0384 -209.795H57.2456M12.0384 -209.795V-165.882M57.2456 -255V-209.795M57.2456 -255H101.161M57.2456 -209.795H101.161M57.2456 -209.795V-165.882M101.161 -255V-209.795M101.161 -255H145.077M101.161 -209.795H145.077M101.161 -209.795V-165.882M145.077 -255V-209.795M145.077 -255H188.992M145.077 -209.795H188.992M145.077 -209.795V-165.882M188.992 -255V-209.795M188.992 -255H234.2M188.992 -209.795H234.2M188.992 -209.795V-165.882M234.2 -255V-209.795M234.2 -255H278.115M234.2 -209.795H278.115M234.2 -209.795V-165.882M278.115 -255V-209.795M278.115 -255H322.031M278.115 -209.795H322.031M278.115 -209.795V-165.882M322.031 -255V-209.795M322.031 -255H365.946M322.031 -209.795H365.946M322.031 -209.795V-165.882M365.946 -255V-209.795M365.946 -255H411.153M365.946 -209.795H411.153M365.946 -209.795V-165.882M411.153 -255V-209.795M411.153 -255H455.069M411.153 -209.795H455.069M411.153 -209.795V-165.882M455.069 -255V-209.795M455.069 -255H498.985M455.069 -209.795H498.985M455.069 -209.795V-165.882M498.985 -255V-209.795M498.985 -255H544.192M498.985 -209.795H544.192M498.985 -209.795V-165.882M544.192 -255V-209.795M544.192 -255H588.107M544.192 -209.795H588.107M544.192 -209.795V-165.882M588.107 -255V-209.795M588.107 -255H632.023M588.107 -209.795H632.023M588.107 -209.795V-165.882M632.023 -255V-209.795M632.023 -255H675.939M632.023 -209.795H675.939M632.023 -209.795V-165.882M675.939 -255V-209.795M675.939 -209.795V-165.882M-121 -165.882H-75.7928M-121 -165.882V-121.968M-75.7928 -165.882H-31.8772M-75.7928 -165.882V-121.968M-31.8772 -165.882H12.0384M-31.8772 -165.882V-121.968M12.0384 -165.882H57.2456M12.0384 -165.882V-121.968M57.2456 -165.882H101.161M57.2456 -165.882V-121.968M101.161 -165.882H145.077M101.161 -165.882V-121.968M145.077 -165.882H188.992M145.077 -165.882V-121.968M188.992 -165.882H234.2M188.992 -165.882V-121.968M234.2 -165.882H278.115M234.2 -165.882V-121.968M278.115 -165.882H322.031M278.115 -165.882V-121.968M322.031 -165.882H365.946M322.031 -165.882V-121.968M365.946 -165.882H411.153M365.946 -165.882V-121.968M411.153 -165.882H455.069M411.153 -165.882V-121.968M455.069 -165.882H498.985M455.069 -165.882V-121.968M498.985 -165.882H544.192M498.985 -165.882V-121.968M544.192 -165.882H588.107M544.192 -165.882V-121.968M588.107 -165.882H632.023M588.107 -165.882V-121.968M632.023 -165.882H675.939M632.023 -165.882V-121.968M675.939 -165.882V-121.968M-121 -121.968H-75.7928M-121 -121.968V-76.7636M-75.7928 -121.968H-31.8772M-75.7928 -121.968V-76.7636M-31.8772 -121.968H12.0384M-31.8772 -121.968V-76.7636M12.0384 -121.968H57.2456M12.0384 -121.968V-76.7636M57.2456 -121.968H101.161M57.2456 -121.968V-76.7636M101.161 -121.968H145.077M101.161 -121.968V-76.7636M145.077 -121.968H188.992M145.077 -121.968V-76.7636M188.992 -121.968H234.2M188.992 -121.968V-76.7636M234.2 -121.968H278.115M234.2 -121.968V-76.7636M278.115 -121.968H322.031M278.115 -121.968V-76.7636M322.031 -121.968H365.946M322.031 -121.968V-76.7636M365.946 -121.968H411.153M365.946 -121.968V-76.7636M411.153 -121.968H455.069M411.153 -121.968V-76.7636M455.069 -121.968H498.985M455.069 -121.968V-76.7636M498.985 -121.968H544.192M498.985 -121.968V-76.7636M544.192 -121.968H588.107M544.192 -121.968V-76.7636M588.107 -121.968H632.023M588.107 -121.968V-76.7636M632.023 -121.968H675.939M632.023 -121.968V-76.7636M675.939 -121.968V-76.7636M-121 -76.7636H-75.7928M-121 -76.7636V-32.8503M-75.7928 -76.7636H-31.8772M-75.7928 -76.7636V-32.8503M-31.8772 -76.7636H12.0384M-31.8772 -76.7636V-32.8503M12.0384 -76.7636H57.2456M12.0384 -76.7636V-32.8503M57.2456 -76.7636H101.161M57.2456 -76.7636V-32.8503M101.161 -76.7636H145.077M101.161 -76.7636V-32.8503M145.077 -76.7636H188.992M145.077 -76.7636V-32.8503M188.992 -76.7636H234.2M188.992 -76.7636V-32.8503M234.2 -76.7636H278.115M234.2 -76.7636V-32.8503M278.115 -76.7636H322.031M278.115 -76.7636V-32.8503M322.031 -76.7636H365.946M322.031 -76.7636V-32.8503M365.946 -76.7636H411.153M365.946 -76.7636V-32.8503M411.153 -76.7636H455.069M411.153 -76.7636V-32.8503M455.069 -76.7636H498.985M455.069 -76.7636V-32.8503M498.985 -76.7636H544.192M498.985 -76.7636V-32.8503M544.192 -76.7636H588.107M544.192 -76.7636V-32.8503M588.107 -76.7636H632.023M588.107 -76.7636V-32.8503M632.023 -76.7636H675.939M632.023 -76.7636V-32.8503M675.939 -76.7636V-32.8503M-121 -32.8503H-75.7928M-121 -32.8503V11.063M-75.7928 -32.8503H-31.8772M-75.7928 -32.8503V11.063M-31.8772 -32.8503H12.0384M-31.8772 -32.8503V11.063M12.0384 -32.8503H57.2456M12.0384 -32.8503V11.063M57.2456 -32.8503H101.161M57.2456 -32.8503V11.063M101.161 -32.8503H145.077M101.161 -32.8503V11.063M145.077 -32.8503H188.992M145.077 -32.8503V11.063M188.992 -32.8503H234.2M188.992 -32.8503V11.063M234.2 -32.8503H278.115M234.2 -32.8503V11.063M278.115 -32.8503H322.031M278.115 -32.8503V11.063M322.031 -32.8503H365.946M322.031 -32.8503V11.063M365.946 -32.8503H411.153M365.946 -32.8503V11.063M411.153 -32.8503H455.069M411.153 -32.8503V11.063M455.069 -32.8503H498.985M455.069 -32.8503V11.063M498.985 -32.8503H544.192M498.985 -32.8503V11.063M544.192 -32.8503H588.107M544.192 -32.8503V11.063M588.107 -32.8503H632.023M588.107 -32.8503V11.063M632.023 -32.8503H675.939M632.023 -32.8503V11.063M675.939 -32.8503V11.063M-121 11.063H-75.7928M-121 11.063V56.2679M-75.7928 11.063H-31.8772M-75.7928 11.063V56.2679M-31.8772 11.063H12.0384M-31.8772 11.063V56.2679M12.0384 11.063H57.2456M12.0384 11.063V56.2679M57.2456 11.063H101.161M57.2456 11.063V56.2679M101.161 11.063H145.077M101.161 11.063V56.2679M145.077 11.063H188.992M145.077 11.063V56.2679M188.992 11.063H234.2M188.992 11.063V56.2679M234.2 11.063H278.115M234.2 11.063V56.2679M278.115 11.063H322.031M278.115 11.063V56.2679M322.031 11.063H365.946M322.031 11.063V56.2679M365.946 11.063H411.153M365.946 11.063V56.2679M411.153 11.063H455.069M411.153 11.063V56.2679M455.069 11.063H498.985M455.069 11.063V56.2679M498.985 11.063H544.192M498.985 11.063V56.2679M544.192 11.063H588.107M544.192 11.063V56.2679M588.107 11.063H632.023M588.107 11.063V56.2679M632.023 11.063H675.939M632.023 11.063V56.2679M675.939 11.063V56.2679M-121 56.2679H-75.7928M-121 56.2679V100.181M-75.7928 56.2679H-31.8772M-75.7928 56.2679V100.181M-31.8772 56.2679H12.0384M-31.8772 56.2679V100.181M12.0384 56.2679H57.2456M12.0384 56.2679V100.181M57.2456 56.2679H101.161M57.2456 56.2679V100.181M101.161 56.2679H145.077M101.161 56.2679V100.181M145.077 56.2679H188.992M145.077 56.2679V100.181M188.992 56.2679H234.2M188.992 56.2679V100.181M234.2 56.2679H278.115M234.2 56.2679V100.181M278.115 56.2679H322.031M278.115 56.2679V100.181M322.031 56.2679H365.946M322.031 56.2679V100.181M365.946 56.2679H411.153M365.946 56.2679V100.181M411.153 56.2679H455.069M411.153 56.2679V100.181M455.069 56.2679H498.985M455.069 56.2679V100.181M498.985 56.2679H544.192M498.985 56.2679V100.181M544.192 56.2679H588.107M544.192 56.2679V100.181M588.107 56.2679H632.023M588.107 56.2679V100.181M632.023 56.2679H675.939M632.023 56.2679V100.181M675.939 56.2679V100.181M-121 100.181H-75.7928M-121 100.181V144.095M-75.7928 100.181H-31.8772M-75.7928 100.181V144.095M-31.8772 100.181H12.0384M-31.8772 100.181V144.095M12.0384 100.181H57.2456M12.0384 100.181V144.095M57.2456 100.181H101.161M57.2456 100.181V144.095M101.161 100.181H145.077M101.161 100.181V144.095M145.077 100.181H188.992M145.077 100.181V144.095M188.992 100.181H234.2M188.992 100.181V144.095M234.2 100.181H278.115M234.2 100.181V144.095M278.115 100.181H322.031M278.115 100.181V144.095M322.031 100.181H365.946M322.031 100.181V144.095M365.946 100.181H411.153M365.946 100.181V144.095M411.153 100.181H455.069M411.153 100.181V144.095M455.069 100.181H498.985M455.069 100.181V144.095M498.985 100.181H544.192M498.985 100.181V144.095M544.192 100.181H588.107M544.192 100.181V144.095M588.107 100.181H632.023M588.107 100.181V144.095M632.023 100.181H675.939M632.023 100.181V144.095M675.939 100.181V144.095M-121 144.095H-75.7928M-121 144.095V188.008M-75.7928 144.095H-31.8772M-75.7928 144.095V188.008M-31.8772 144.095H12.0384M-31.8772 144.095V188.008M12.0384 144.095H57.2456M12.0384 144.095V188.008M57.2456 144.095H101.161M57.2456 144.095V188.008M101.161 144.095H145.077M101.161 144.095V188.008M145.077 144.095H188.992M145.077 144.095V188.008M188.992 144.095H234.2M188.992 144.095V188.008M234.2 144.095H278.115M234.2 144.095V188.008M278.115 144.095H322.031M278.115 144.095V188.008M322.031 144.095H365.946M322.031 144.095V188.008M365.946 144.095H411.153M365.946 144.095V188.008M411.153 144.095H455.069M411.153 144.095V188.008M455.069 144.095H498.985M455.069 144.095V188.008M498.985 144.095H544.192M498.985 144.095V188.008M544.192 144.095H588.107M544.192 144.095V188.008M588.107 144.095H632.023M588.107 144.095V188.008M632.023 144.095H675.939M632.023 144.095V188.008M675.939 144.095V188.008M-121 188.008H-75.7928M-121 188.008V233.213M-75.7928 188.008H-31.8772M-75.7928 188.008V233.213M-31.8772 188.008H12.0384M-31.8772 188.008V233.213M12.0384 188.008H57.2456M12.0384 188.008V233.213M57.2456 188.008H101.161M57.2456 188.008V233.213M101.161 188.008H145.077M101.161 188.008V233.213M145.077 188.008H188.992M145.077 188.008V233.213M188.992 188.008H234.2M188.992 188.008V233.213M234.2 188.008H278.115M234.2 188.008V233.213M278.115 188.008H322.031M278.115 188.008V233.213M322.031 188.008H365.946M322.031 188.008V233.213M365.946 188.008H411.153M365.946 188.008V233.213M411.153 188.008H455.069M411.153 188.008V233.213M455.069 188.008H498.985M455.069 188.008V233.213M498.985 188.008H544.192M498.985 188.008V233.213M544.192 188.008H588.107M544.192 188.008V233.213M588.107 188.008H632.023M588.107 188.008V233.213M632.023 188.008H675.939M632.023 188.008V233.213M675.939 188.008V233.213M-121 233.213H-75.7928M-121 233.213V277.126M-75.7928 233.213H-31.8772M-75.7928 233.213V277.126M-31.8772 233.213H12.0384M-31.8772 233.213V277.126M12.0384 233.213H57.2456M12.0384 233.213V277.126M57.2456 233.213H101.161M57.2456 233.213V277.126M101.161 233.213H145.077M101.161 233.213V277.126M145.077 233.213H188.992M145.077 233.213V277.126M188.992 233.213H234.2M188.992 233.213V277.126M234.2 233.213H278.115M234.2 233.213V277.126M278.115 233.213H322.031M278.115 233.213V277.126M322.031 233.213H365.946M322.031 233.213V277.126M365.946 233.213H411.153M365.946 233.213V277.126M411.153 233.213H455.069M411.153 233.213V277.126M455.069 233.213H498.985M455.069 233.213V277.126M498.985 233.213H544.192M498.985 233.213V277.126M544.192 233.213H588.107M544.192 233.213V277.126M588.107 233.213H632.023M588.107 233.213V277.126M632.023 233.213H675.939M632.023 233.213V277.126M675.939 233.213V277.126M-121 277.126H-75.7928M-121 277.126V321.039M-75.7928 277.126H-31.8772M-75.7928 277.126V321.039M-31.8772 277.126H12.0384M-31.8772 277.126V321.039M12.0384 277.126H57.2456M12.0384 277.126V321.039M57.2456 277.126H101.161M57.2456 277.126V321.039M101.161 277.126H145.077M101.161 277.126V321.039M145.077 277.126H188.992M145.077 277.126V321.039M188.992 277.126H234.2M188.992 277.126V321.039M234.2 277.126H278.115M234.2 277.126V321.039M278.115 277.126H322.031M278.115 277.126V321.039M322.031 277.126H365.946M322.031 277.126V321.039M365.946 277.126H411.153M365.946 277.126V321.039M411.153 277.126H455.069M411.153 277.126V321.039M455.069 277.126H498.985M455.069 277.126V321.039M498.985 277.126H544.192M498.985 277.126V321.039M544.192 277.126H588.107M544.192 277.126V321.039M588.107 277.126H632.023M588.107 277.126V321.039M632.023 277.126H675.939M632.023 277.126V321.039M675.939 277.126V321.039M-121 321.039H-75.7928M-121 321.039V366.244M-75.7928 321.039H-31.8772M-75.7928 321.039V366.244M-31.8772 321.039H12.0384M-31.8772 321.039V366.244M12.0384 321.039H57.2456M12.0384 321.039V366.244M57.2456 321.039H101.161M57.2456 321.039V366.244M101.161 321.039H145.077M101.161 321.039V366.244M145.077 321.039H188.992M145.077 321.039V366.244M188.992 321.039H234.2M188.992 321.039V366.244M234.2 321.039H278.115M234.2 321.039V366.244M278.115 321.039H322.031M278.115 321.039V366.244M322.031 321.039H365.946M322.031 321.039V366.244M365.946 321.039H411.153M365.946 321.039V366.244M411.153 321.039H455.069M411.153 321.039V366.244M455.069 321.039H498.985M455.069 321.039V366.244M498.985 321.039H544.192M498.985 321.039V366.244M544.192 321.039H588.107M544.192 321.039V366.244M588.107 321.039H632.023M588.107 321.039V366.244M632.023 321.039H675.939M632.023 321.039V366.244M675.939 321.039V366.244M-121 366.244H-75.7928M-121 366.244V410.158M-75.7928 366.244H-31.8772M-75.7928 366.244V410.158M-31.8772 366.244H12.0384M-31.8772 366.244V410.158M12.0384 366.244H57.2456M12.0384 366.244V410.158M57.2456 366.244H101.161M57.2456 366.244V410.158M101.161 366.244H145.077M101.161 366.244V410.158M145.077 366.244H188.992M145.077 366.244V410.158M188.992 366.244H234.2M188.992 366.244V410.158M234.2 366.244H278.115M234.2 366.244V410.158M278.115 366.244H322.031M278.115 366.244V410.158M322.031 366.244H365.946M322.031 366.244V410.158M365.946 366.244H411.153M365.946 366.244V410.158M411.153 366.244H455.069M411.153 366.244V410.158M455.069 366.244H498.985M455.069 366.244V410.158M498.985 366.244H544.192M498.985 366.244V410.158M544.192 366.244H588.107M544.192 366.244V410.158M588.107 366.244H632.023M588.107 366.244V410.158M632.023 366.244H675.939M632.023 366.244V410.158M675.939 366.244V410.158M-121 410.158H-75.7928M-121 410.158V454.071M-75.7928 410.158H-31.8772M-75.7928 410.158V454.071M-31.8772 410.158H12.0384M-31.8772 410.158V454.071M12.0384 410.158H57.2456M12.0384 410.158V454.071M57.2456 410.158H101.161M57.2456 410.158V454.071M101.161 410.158H145.077M101.161 410.158V454.071M145.077 410.158H188.992M145.077 410.158V454.071M188.992 410.158H234.2M188.992 410.158V454.071M234.2 410.158H278.115M234.2 410.158V454.071M278.115 410.158H322.031M278.115 410.158V454.071M322.031 410.158H365.946M322.031 410.158V454.071M365.946 410.158H411.153M365.946 410.158V454.071M411.153 410.158H455.069M411.153 410.158V454.071M455.069 410.158H498.985M455.069 410.158V454.071M498.985 410.158H544.192M498.985 410.158V454.071M544.192 410.158H588.107M544.192 410.158V454.071M588.107 410.158H632.023M588.107 410.158V454.071M632.023 410.158H675.939M632.023 410.158V454.071M675.939 410.158V454.071M-121 454.071H-75.7928M-121 454.071V497.984M-75.7928 454.071H-31.8772M-75.7928 454.071V497.984M-31.8772 454.071H12.0384M-31.8772 454.071V497.984M12.0384 454.071H57.2456M12.0384 454.071V497.984M57.2456 454.071H101.161M57.2456 454.071V497.984M101.161 454.071H145.077M101.161 454.071V497.984M145.077 454.071H188.992M145.077 454.071V497.984M188.992 454.071H234.2M188.992 454.071V497.984M234.2 454.071H278.115M234.2 454.071V497.984M278.115 454.071H322.031M278.115 454.071V497.984M322.031 454.071H365.946M322.031 454.071V497.984M365.946 454.071H411.153M365.946 454.071V497.984M411.153 454.071H455.069M411.153 454.071V497.984M455.069 454.071H498.985M455.069 454.071V497.984M498.985 454.071H544.192M498.985 454.071V497.984M544.192 454.071H588.107M544.192 454.071V497.984M588.107 454.071H632.023M588.107 454.071V497.984M632.023 454.071H675.939M632.023 454.071V497.984M675.939 454.071V497.984M-121 497.984H-75.7928M-121 497.984V543.189M-75.7928 497.984H-31.8772M-75.7928 497.984V543.189M-31.8772 497.984H12.0384M-31.8772 497.984V543.189M12.0384 497.984H57.2456M12.0384 497.984V543.189M57.2456 497.984H101.161M57.2456 497.984V543.189M101.161 497.984H145.077M101.161 497.984V543.189M145.077 497.984H188.992M145.077 497.984V543.189M188.992 497.984H234.2M188.992 497.984V543.189M234.2 497.984H278.115M234.2 497.984V543.189M278.115 497.984H322.031M278.115 497.984V543.189M322.031 497.984H365.946M322.031 497.984V543.189M365.946 497.984H411.153M365.946 497.984V543.189M411.153 497.984H455.069M411.153 497.984V543.189M455.069 497.984H498.985M455.069 497.984V543.189M498.985 497.984H544.192M498.985 497.984V543.189M544.192 497.984H588.107M544.192 497.984V543.189M588.107 497.984H632.023M588.107 497.984V543.189M632.023 497.984H675.939M632.023 497.984V543.189M675.939 497.984V543.189M-121 543.189H-75.7928M-121 543.189V587.102M-75.7928 543.189H-31.8772M-75.7928 543.189V587.102M-31.8772 543.189H12.0384M-31.8772 543.189V587.102M12.0384 543.189H57.2456M12.0384 543.189V587.102M57.2456 543.189H101.161M57.2456 543.189V587.102M101.161 543.189H145.077M101.161 543.189V587.102M145.077 543.189H188.992M145.077 543.189V587.102M188.992 543.189H234.2M188.992 543.189V587.102M234.2 543.189H278.115M234.2 543.189V587.102M278.115 543.189H322.031M278.115 543.189V587.102M322.031 543.189H365.946M322.031 543.189V587.102M365.946 543.189H411.153M365.946 543.189V587.102M411.153 543.189H455.069M411.153 543.189V587.102M455.069 543.189H498.985M455.069 543.189V587.102M498.985 543.189H544.192M498.985 543.189V587.102M544.192 543.189H588.107M544.192 543.189V587.102M588.107 543.189H632.023M588.107 543.189V587.102M632.023 543.189H675.939M632.023 543.189V587.102M675.939 543.189V587.102M-121 587.102H-75.7928M-121 587.102V631.016M-75.7928 587.102H-31.8772M-75.7928 587.102V631.016M-31.8772 587.102H12.0384M-31.8772 587.102V631.016M12.0384 587.102H57.2456M12.0384 587.102V631.016M57.2456 587.102H101.161M57.2456 587.102V631.016M101.161 587.102H145.077M101.161 587.102V631.016M145.077 587.102H188.992M145.077 587.102V631.016M188.992 587.102H234.2M188.992 587.102V631.016M234.2 587.102H278.115M234.2 587.102V631.016M278.115 587.102H322.031M278.115 587.102V631.016M322.031 587.102H365.946M322.031 587.102V631.016M365.946 587.102H411.153M365.946 587.102V631.016M411.153 587.102H455.069M411.153 587.102V631.016M455.069 587.102H498.985M455.069 587.102V631.016M498.985 587.102H544.192M498.985 587.102V631.016M544.192 587.102H588.107M544.192 587.102V631.016M588.107 587.102H632.023M588.107 587.102V631.016M632.023 587.102H675.939M632.023 587.102V631.016M675.939 587.102V631.016M-121 631.016H-75.7928M-121 631.016V676.221M-75.7928 631.016H-31.8772M-75.7928 631.016V676.221M-31.8772 631.016H12.0384M-31.8772 631.016V676.221M12.0384 631.016H57.2456M12.0384 631.016V676.221M57.2456 631.016H101.161M57.2456 631.016V676.221M101.161 631.016H145.077M101.161 631.016V676.221M145.077 631.016H188.992M145.077 631.016V676.221M188.992 631.016H234.2M188.992 631.016V676.221M234.2 631.016H278.115M234.2 631.016V676.221M278.115 631.016H322.031M278.115 631.016V676.221M322.031 631.016H365.946M322.031 631.016V676.221M365.946 631.016H411.153M365.946 631.016V676.221M411.153 631.016H455.069M411.153 631.016V676.221M455.069 631.016H498.985M455.069 631.016V676.221M498.985 631.016H544.192M498.985 631.016V676.221M544.192 631.016H588.107M544.192 631.016V676.221M588.107 631.016H632.023M588.107 631.016V676.221M632.023 631.016H675.939M632.023 631.016V676.221M675.939 631.016V676.221M-121 676.221H-75.7928M-121 676.221V720.134M-75.7928 676.221H-31.8772M-75.7928 676.221V720.134M-31.8772 676.221H12.0384M-31.8772 676.221V720.134M12.0384 676.221H57.2456M12.0384 676.221V720.134M57.2456 676.221H101.161M57.2456 676.221V720.134M101.161 676.221H145.077M101.161 676.221V720.134M145.077 676.221H188.992M145.077 676.221V720.134M188.992 676.221H234.2M188.992 676.221V720.134M234.2 676.221H278.115M234.2 676.221V720.134M278.115 676.221H322.031M278.115 676.221V720.134M322.031 676.221H365.946M322.031 676.221V720.134M365.946 676.221H411.153M365.946 676.221V720.134M411.153 676.221H455.069M411.153 676.221V720.134M455.069 676.221H498.985M455.069 676.221V720.134M498.985 676.221H544.192M498.985 676.221V720.134M544.192 676.221H588.107M544.192 676.221V720.134M588.107 676.221H632.023M588.107 676.221V720.134M632.023 676.221H675.939M632.023 676.221V720.134M675.939 676.221V720.134M-121 720.134H-75.7928M-121 720.134V764.047M-75.7928 720.134H-31.8772M-75.7928 720.134V764.047M-31.8772 720.134H12.0384M-31.8772 720.134V764.047M12.0384 720.134H57.2456M12.0384 720.134V764.047M57.2456 720.134H101.161M57.2456 720.134V764.047M101.161 720.134H145.077M101.161 720.134V764.047M145.077 720.134H188.992M145.077 720.134V764.047M188.992 720.134H234.2M188.992 720.134V764.047M234.2 720.134H278.115M234.2 720.134V764.047M278.115 720.134H322.031M278.115 720.134V764.047M322.031 720.134H365.946M322.031 720.134V764.047M365.946 720.134H411.153M365.946 720.134V764.047M411.153 720.134H455.069M411.153 720.134V764.047M455.069 720.134H498.985M455.069 720.134V764.047M498.985 720.134H544.192M498.985 720.134V764.047M544.192 720.134H588.107M544.192 720.134V764.047M588.107 720.134H632.023M588.107 720.134V764.047M632.023 720.134H675.939M632.023 720.134V764.047M675.939 720.134V764.047M-121 764.047H-75.7928M-121 764.047V809.252M-75.7928 764.047H-31.8772M-75.7928 764.047V809.252M-31.8772 764.047H12.0384M-31.8772 764.047V809.252M12.0384 764.047H57.2456M12.0384 764.047V809.252M57.2456 764.047H101.161M57.2456 764.047V809.252M101.161 764.047H145.077M101.161 764.047V809.252M145.077 764.047H188.992M145.077 764.047V809.252M188.992 764.047H234.2M188.992 764.047V809.252M234.2 764.047H278.115M234.2 764.047V809.252M278.115 764.047H322.031M278.115 764.047V809.252M322.031 764.047H365.946M322.031 764.047V809.252M365.946 764.047H411.153M365.946 764.047V809.252M411.153 764.047H455.069M411.153 764.047V809.252M455.069 764.047H498.985M455.069 764.047V809.252M498.985 764.047H544.192M498.985 764.047V809.252M544.192 764.047H588.107M544.192 764.047V809.252M588.107 764.047H632.023M588.107 764.047V809.252M632.023 764.047H675.939M632.023 764.047V809.252M675.939 764.047V809.252M-121 809.252H-75.7928M-121 809.252V853.165M-75.7928 809.252H-31.8772M-75.7928 809.252V853.165M-31.8772 809.252H12.0384M-31.8772 809.252V853.165M12.0384 809.252H57.2456M12.0384 809.252V853.165M57.2456 809.252H101.161M57.2456 809.252V853.165M101.161 809.252H145.077M101.161 809.252V853.165M145.077 809.252H188.992M145.077 809.252V853.165M188.992 809.252H234.2M188.992 809.252V853.165M234.2 809.252H278.115M234.2 809.252V853.165M278.115 809.252H322.031M278.115 809.252V853.165M322.031 809.252H365.946M322.031 809.252V853.165M365.946 809.252H411.153M365.946 809.252V853.165M411.153 809.252H455.069M411.153 809.252V853.165M455.069 809.252H498.985M455.069 809.252V853.165M498.985 809.252H544.192M498.985 809.252V853.165M544.192 809.252H588.107M544.192 809.252V853.165M588.107 809.252H632.023M588.107 809.252V853.165M632.023 809.252H675.939M632.023 809.252V853.165M675.939 809.252V853.165M-121 853.165H-75.7928M-121 853.165V897.079M-75.7928 853.165H-31.8772M-75.7928 853.165V897.079M-31.8772 853.165H12.0384M-31.8772 853.165V897.079M12.0384 853.165H57.2456M12.0384 853.165V897.079M57.2456 853.165H101.161M57.2456 853.165V897.079M101.161 853.165H145.077M101.161 853.165V897.079M145.077 853.165H188.992M145.077 853.165V897.079M188.992 853.165H234.2M188.992 853.165V897.079M234.2 853.165H278.115M234.2 853.165V897.079M278.115 853.165H322.031M278.115 853.165V897.079M322.031 853.165H365.946M322.031 853.165V897.079M365.946 853.165H411.153M365.946 853.165V897.079M411.153 853.165H455.069M411.153 853.165V897.079M455.069 853.165H498.985M455.069 853.165V897.079M498.985 853.165H544.192M498.985 853.165V897.079M544.192 853.165H588.107M544.192 853.165V897.079M588.107 853.165H632.023M588.107 853.165V897.079M632.023 853.165H675.939M632.023 853.165V897.079M675.939 853.165V897.079M-121 897.079H-75.7928M-121 897.079V940.992M-75.7928 897.079H-31.8772M-75.7928 897.079V940.992M-31.8772 897.079H12.0384M-31.8772 897.079V940.992M12.0384 897.079H57.2456M12.0384 897.079V940.992M57.2456 897.079H101.161M57.2456 897.079V940.992M101.161 897.079H145.077M101.161 897.079V940.992M145.077 897.079H188.992M145.077 897.079V940.992M188.992 897.079H234.2M188.992 897.079V940.992M234.2 897.079H278.115M234.2 897.079V940.992M278.115 897.079H322.031M278.115 897.079V940.992M322.031 897.079H365.946M322.031 897.079V940.992M365.946 897.079H411.153M365.946 897.079V940.992M411.153 897.079H455.069M411.153 897.079V940.992M455.069 897.079H498.985M455.069 897.079V940.992M498.985 897.079H544.192M498.985 897.079V940.992M544.192 897.079H588.107M544.192 897.079V940.992M588.107 897.079H632.023M588.107 897.079V940.992M632.023 897.079H675.939M632.023 897.079V940.992M675.939 897.079V940.992M-121 940.992H-75.7928M-121 940.992V986.197M-75.7928 940.992H-31.8772M-75.7928 940.992V986.197M-31.8772 940.992H12.0384M-31.8772 940.992V986.197M12.0384 940.992H57.2456M12.0384 940.992V986.197M57.2456 940.992H101.161M57.2456 940.992V986.197M101.161 940.992H145.077M101.161 940.992V986.197M145.077 940.992H188.992M145.077 940.992V986.197M188.992 940.992H234.2M188.992 940.992V986.197M234.2 940.992H278.115M234.2 940.992V986.197M278.115 940.992H322.031M278.115 940.992V986.197M322.031 940.992H365.946M322.031 940.992V986.197M365.946 940.992H411.153M365.946 940.992V986.197M411.153 940.992H455.069M411.153 940.992V986.197M455.069 940.992H498.985M455.069 940.992V986.197M498.985 940.992H544.192M498.985 940.992V986.197M544.192 940.992H588.107M544.192 940.992V986.197M588.107 940.992H632.023M588.107 940.992V986.197M632.023 940.992H675.939M632.023 940.992V986.197M675.939 940.992V986.197M-121 986.197H-75.7928M-121 986.197V1030.11M-75.7928 986.197H-31.8772M-75.7928 986.197V1030.11M-31.8772 986.197H12.0384M-31.8772 986.197V1030.11M12.0384 986.197H57.2456M12.0384 986.197V1030.11M57.2456 986.197H101.161M57.2456 986.197V1030.11M101.161 986.197H145.077M101.161 986.197V1030.11M145.077 986.197H188.992M145.077 986.197V1030.11M188.992 986.197H234.2M188.992 986.197V1030.11M234.2 986.197H278.115M234.2 986.197V1030.11M278.115 986.197H322.031M278.115 986.197V1030.11M322.031 986.197H365.946M322.031 986.197V1030.11M365.946 986.197H411.153M365.946 986.197V1030.11M411.153 986.197H455.069M411.153 986.197V1030.11M455.069 986.197H498.985M455.069 986.197V1030.11M498.985 986.197H544.192M498.985 986.197V1030.11M544.192 986.197H588.107M544.192 986.197V1030.11M588.107 986.197H632.023M588.107 986.197V1030.11M632.023 986.197H675.939M632.023 986.197V1030.11M675.939 986.197V1030.11M-121 1030.11H-75.7928M-121 1030.11V1074.02M-75.7928 1030.11H-31.8772M-75.7928 1030.11V1074.02M-31.8772 1030.11H12.0384M-31.8772 1030.11V1074.02M12.0384 1030.11H57.2456M12.0384 1030.11V1074.02M57.2456 1030.11H101.161M57.2456 1030.11V1074.02M101.161 1030.11H145.077M101.161 1030.11V1074.02M145.077 1030.11H188.992M145.077 1030.11V1074.02M188.992 1030.11H234.2M188.992 1030.11V1074.02M234.2 1030.11H278.115M234.2 1030.11V1074.02M278.115 1030.11H322.031M278.115 1030.11V1074.02M322.031 1030.11H365.946M322.031 1030.11V1074.02M365.946 1030.11H411.153M365.946 1030.11V1074.02M411.153 1030.11H455.069M411.153 1030.11V1074.02M455.069 1030.11H498.985M455.069 1030.11V1074.02M498.985 1030.11H544.192M498.985 1030.11V1074.02M544.192 1030.11H588.107M544.192 1030.11V1074.02M588.107 1030.11H632.023M588.107 1030.11V1074.02M632.023 1030.11H675.939M632.023 1030.11V1074.02M675.939 1030.11V1074.02M-121 1074.02H-75.7928M-121 1074.02V1119.23M-75.7928 1074.02H-31.8772M-75.7928 1074.02V1119.23M-31.8772 1074.02H12.0384M-31.8772 1074.02V1119.23M12.0384 1074.02H57.2456M12.0384 1074.02V1119.23M57.2456 1074.02H101.161M57.2456 1074.02V1119.23M101.161 1074.02H145.077M101.161 1074.02V1119.23M145.077 1074.02H188.992M145.077 1074.02V1119.23M188.992 1074.02H234.2M188.992 1074.02V1119.23M234.2 1074.02H278.115M234.2 1074.02V1119.23M278.115 1074.02H322.031M278.115 1074.02V1119.23M322.031 1074.02H365.946M322.031 1074.02V1119.23M365.946 1074.02H411.153M365.946 1074.02V1119.23M411.153 1074.02H455.069M411.153 1074.02V1119.23M455.069 1074.02H498.985M455.069 1074.02V1119.23M498.985 1074.02H544.192M498.985 1074.02V1119.23M544.192 1074.02H588.107M544.192 1074.02V1119.23M588.107 1074.02H632.023M588.107 1074.02V1119.23M632.023 1074.02H675.939M632.023 1074.02V1119.23M675.939 1074.02V1119.23M-121 1119.23H-75.7928M-121 1119.23V1163.14M-75.7928 1119.23H-31.8772M-75.7928 1119.23V1163.14M-31.8772 1119.23H12.0384M-31.8772 1119.23V1163.14M12.0384 1119.23H57.2456M12.0384 1119.23V1163.14M57.2456 1119.23H101.161M57.2456 1119.23V1163.14M101.161 1119.23H145.077M101.161 1119.23V1163.14M145.077 1119.23H188.992M145.077 1119.23V1163.14M188.992 1119.23H234.2M188.992 1119.23V1163.14M234.2 1119.23H278.115M234.2 1119.23V1163.14M278.115 1119.23H322.031M278.115 1119.23V1163.14M322.031 1119.23H365.946M322.031 1119.23V1163.14M365.946 1119.23H411.153M365.946 1119.23V1163.14M411.153 1119.23H455.069M411.153 1119.23V1163.14M455.069 1119.23H498.985M455.069 1119.23V1163.14M498.985 1119.23H544.192M498.985 1119.23V1163.14M544.192 1119.23H588.107M544.192 1119.23V1163.14M588.107 1119.23H632.023M588.107 1119.23V1163.14M632.023 1119.23H675.939M632.023 1119.23V1163.14M675.939 1119.23V1163.14M-121 1163.14H-75.7928M-121 1163.14V1207.06M-75.7928 1163.14H-31.8772M-75.7928 1163.14V1207.06M-31.8772 1163.14H12.0384M-31.8772 1163.14V1207.06M12.0384 1163.14H57.2456M12.0384 1163.14V1207.06M57.2456 1163.14H101.161M57.2456 1163.14V1207.06M101.161 1163.14H145.077M101.161 1163.14V1207.06M145.077 1163.14H188.992M145.077 1163.14V1207.06M188.992 1163.14H234.2M188.992 1163.14V1207.06M234.2 1163.14H278.115M234.2 1163.14V1207.06M278.115 1163.14H322.031M278.115 1163.14V1207.06M322.031 1163.14H365.946M322.031 1163.14V1207.06M365.946 1163.14H411.153M365.946 1163.14V1207.06M411.153 1163.14H455.069M411.153 1163.14V1207.06M455.069 1163.14H498.985M455.069 1163.14V1207.06M498.985 1163.14H544.192M498.985 1163.14V1207.06M544.192 1163.14H588.107M544.192 1163.14V1207.06M588.107 1163.14H632.023M588.107 1163.14V1207.06M632.023 1163.14H675.939M632.023 1163.14V1207.06M675.939 1163.14V1207.06M-121 1207.06H-75.7928M-121 1207.06V1252.26M-75.7928 1207.06H-31.8772M-75.7928 1207.06V1252.26M-31.8772 1207.06H12.0384M-31.8772 1207.06V1252.26M12.0384 1207.06H57.2456M12.0384 1207.06V1252.26M57.2456 1207.06H101.161M57.2456 1207.06V1252.26M101.161 1207.06H145.077M101.161 1207.06V1252.26M145.077 1207.06H188.992M145.077 1207.06V1252.26M188.992 1207.06H234.2M188.992 1207.06V1252.26M234.2 1207.06H278.115M234.2 1207.06V1252.26M278.115 1207.06H322.031M278.115 1207.06V1252.26M322.031 1207.06H365.946M322.031 1207.06V1252.26M365.946 1207.06H411.153M365.946 1207.06V1252.26M411.153 1207.06H455.069M411.153 1207.06V1252.26M455.069 1207.06H498.985M455.069 1207.06V1252.26M498.985 1207.06H544.192M498.985 1207.06V1252.26M544.192 1207.06H588.107M544.192 1207.06V1252.26M588.107 1207.06H632.023M588.107 1207.06V1252.26M632.023 1207.06H675.939M632.023 1207.06V1252.26M675.939 1207.06V1252.26M-121 1252.26H-75.7928M-121 1252.26V1296.17M-75.7928 1252.26H-31.8772M-75.7928 1252.26V1296.17M-31.8772 1252.26H12.0384M-31.8772 1252.26V1296.17M12.0384 1252.26H57.2456M12.0384 1252.26V1296.17M57.2456 1252.26H101.161M57.2456 1252.26V1296.17M101.161 1252.26H145.077M101.161 1252.26V1296.17M145.077 1252.26H188.992M145.077 1252.26V1296.17M188.992 1252.26H234.2M188.992 1252.26V1296.17M234.2 1252.26H278.115M234.2 1252.26V1296.17M278.115 1252.26H322.031M278.115 1252.26V1296.17M322.031 1252.26H365.946M322.031 1252.26V1296.17M365.946 1252.26H411.153M365.946 1252.26V1296.17M411.153 1252.26H455.069M411.153 1252.26V1296.17M455.069 1252.26H498.985M455.069 1252.26V1296.17M498.985 1252.26H544.192M498.985 1252.26V1296.17M544.192 1252.26H588.107M544.192 1252.26V1296.17M588.107 1252.26H632.023M588.107 1252.26V1296.17M632.023 1252.26H675.939M632.023 1252.26V1296.17M675.939 1252.26V1296.17M-121 1296.17H-75.7928M-121 1296.17V1340.09M-75.7928 1296.17H-31.8772M-75.7928 1296.17V1340.09M-31.8772 1296.17H12.0384M-31.8772 1296.17V1340.09M12.0384 1296.17H57.2456M12.0384 1296.17V1340.09M57.2456 1296.17H101.161M57.2456 1296.17V1340.09M101.161 1296.17H145.077M101.161 1296.17V1340.09M145.077 1296.17H188.992M145.077 1296.17V1340.09M188.992 1296.17H234.2M188.992 1296.17V1340.09M234.2 1296.17H278.115M234.2 1296.17V1340.09M278.115 1296.17H322.031M278.115 1296.17V1340.09M322.031 1296.17H365.946M322.031 1296.17V1340.09M365.946 1296.17H411.153M365.946 1296.17V1340.09M411.153 1296.17H455.069M411.153 1296.17V1340.09M455.069 1296.17H498.985M455.069 1296.17V1340.09M498.985 1296.17H544.192M498.985 1296.17V1340.09M544.192 1296.17H588.107M544.192 1296.17V1340.09M588.107 1296.17H632.023M588.107 1296.17V1340.09M632.023 1296.17H675.939M632.023 1296.17V1340.09M675.939 1296.17V1340.09M-121 1340.09H-75.7928M-121 1340.09V1384H-75.7928M-75.7928 1340.09H-31.8772M-75.7928 1340.09V1384M-31.8772 1340.09H12.0384M-31.8772 1340.09V1384M12.0384 1340.09H57.2456M12.0384 1340.09V1384M57.2456 1340.09H101.161M57.2456 1340.09V1384M101.161 1340.09H145.077M101.161 1340.09V1384M145.077 1340.09H188.992M145.077 1340.09V1384M188.992 1340.09H234.2M188.992 1340.09V1384M234.2 1340.09H278.115M234.2 1340.09V1384M278.115 1340.09H322.031M278.115 1340.09V1384M322.031 1340.09H365.946M322.031 1340.09V1384M365.946 1340.09H411.153M365.946 1340.09V1384M411.153 1340.09H455.069M411.153 1340.09V1384M455.069 1340.09H498.985M455.069 1340.09V1384M498.985 1340.09H544.192M498.985 1340.09V1384M544.192 1340.09H588.107M544.192 1340.09V1384M588.107 1340.09H632.023M588.107 1340.09V1384M632.023 1340.09H675.939M632.023 1340.09V1384M675.939 1340.09V1384M-75.7928 1384H-31.8772M-31.8772 1384H12.0384M12.0384 1384H57.2456M57.2456 1384H101.161M101.161 1384H145.077M145.077 1384H188.992M188.992 1384H234.2M234.2 1384H278.115M278.115 1384H322.031M322.031 1384H365.946M365.946 1384H411.153M411.153 1384H455.069M455.069 1384H498.985M498.985 1384H544.192M544.192 1384H588.107M588.107 1384H632.023M632.023 1384H675.939" stroke="url(#paint0_radial_4972_19370)"/>
<defs>
<radialGradient id="paint0_radial_4972_19370" cx="0" cy="0" r="1" gradientTransform="matrix(214.411 613.495 -629.964 220.145 657.856 -48.3491)" gradientUnits="userSpaceOnUse">
<stop stop-opacity="0"/>
<stop offset="0.1" stop-color="white" stop-opacity="0.25"/>
<stop offset="1" stop-opacity="0"/>
</radialGradient>
</defs>
</svg>
