<svg width="174" height="57" viewBox="0 0 174 57" fill="none" xmlns="http://www.w3.org/2000/svg">
<path d="M12.3691 14.83C10.1191 14.83 9.12906 15.4 9.12906 16.63C9.12906 17.62 9.75906 18.22 11.2291 18.85C13.5691 19.9 14.5891 21.1 14.5891 22.81C14.5891 26.29 12.3991 27.76 7.32906 27.76C2.37906 27.76 0.249063 25.81 0.249063 21.28C0.249063 20.32 0.399062 19.18 0.699062 17.5H2.49906C2.31906 19.03 2.25906 20.05 2.25906 20.98C2.25906 23.98 3.78906 25.27 7.32906 25.27C11.1391 25.27 12.7891 24.58 12.7891 22.96C12.7891 22.24 12.1291 21.64 10.6291 20.95C8.31906 19.93 7.32906 18.7 7.32906 16.87C7.32906 13.75 9.00906 12.43 12.3391 12.43C19.0891 12.43 16.2691 19.36 20.1391 19.36V21.73L19.4191 22C14.4691 22 17.6791 14.83 12.3691 14.83ZM5.52906 33.19L3.84906 31.51L5.52906 29.83L7.11906 31.42L8.67906 29.83L10.3591 31.51L8.67906 33.19L7.11906 31.63L5.52906 33.19ZM16.3019 27.7L14.5619 25.96L16.3019 24.25L18.0419 25.96L16.3019 27.7ZM19.4219 19.66L20.1419 19.36H20.6219V21.58L19.9019 22H19.4219V19.66ZM23.4006 13.84H25.4706V17.32C25.4706 18.76 26.0106 19.36 27.1806 19.36H27.9006V21.52L27.1806 22C25.6506 22 24.7806 21.31 24.3906 19.72C23.8806 21.31 22.8006 22 20.9706 22H19.8906V19.78L20.6106 19.36H21.3006C22.7706 19.36 23.4006 18.82 23.4006 17.5V13.84ZM21.7206 27.4L20.0406 25.72L21.7206 24.04L23.3106 25.63L24.8406 24.07L26.5206 25.75L24.8406 27.43L23.2806 25.87L21.7206 27.4ZM30.3897 5.05H32.4597V17.41C32.4897 18.79 33.0297 19.36 34.1697 19.36H34.8897V21.52L34.1697 22C32.7597 22 31.8597 21.37 31.4397 20.02C30.9897 21.37 30.0297 22 28.4997 22H27.1797V19.9L27.8997 19.36H28.4997C29.8197 19.36 30.3897 18.76 30.3897 17.38V5.05ZM44.9641 3.79V6.4L37.4041 11.11C42.2341 12.52 44.3041 14.41 44.3041 17.44C44.3041 18.13 44.2141 18.73 44.0641 19.27C44.6041 19.36 45.1441 19.36 45.8041 19.36V21.52C45.7141 21.7 45.2641 21.97 45.0841 22C44.1541 22 43.1941 21.85 42.2041 21.46C41.4241 21.82 40.3741 22 39.0841 22H34.1641V19.87L34.8841 19.36H39.5041C41.6341 19.36 42.5341 18.79 42.5341 17.47C42.5341 15.55 40.4941 14.14 35.7841 12.79V9.61L44.9641 3.79ZM48.2959 5.05H50.3659V17.41C50.3659 20.62 49.1959 22 46.3759 22H45.0859V19.9L45.8059 19.36H46.4059C47.7259 19.36 48.2959 18.76 48.2959 17.38V5.05ZM53.5722 22V5.05H55.7322V22H53.5722ZM70.1753 9.67H72.2153V17.26C72.2153 19.18 73.1453 19.36 74.7053 19.36V21.43C74.6453 21.76 74.3153 22 73.9853 22C72.1553 22 70.9253 21.28 70.4453 19.75C69.4553 20.77 68.3153 21.19 66.8453 21.19C64.2953 21.19 63.1853 20.02 63.1853 17.29C63.1853 14.89 64.5053 13.42 67.6253 12.4L70.1753 11.53V9.67ZM67.0853 18.7C68.4053 18.7 69.3653 18.43 70.1753 17.8V13.78L67.4753 14.5C65.7653 14.98 65.0453 15.73 65.0453 16.9C65.0453 18.16 65.6453 18.7 67.0853 18.7ZM65.3153 7.96L63.6353 6.28L65.3153 4.6L66.8753 6.16L68.4353 4.6L70.1153 6.28L68.4353 7.96L66.8753 6.4L65.3153 7.96ZM74.7044 19.36H76.4444C75.8744 18.55 75.5744 17.44 75.5744 16C75.5744 12.52 77.0144 11.05 80.3744 11.05C83.8544 11.05 85.3244 12.46 85.3244 15.76H83.3444C83.3444 14.2 82.3844 13.54 80.1344 13.54C78.2144 13.54 77.4044 14.32 77.4044 16.12C77.4044 18.22 78.8144 19.09 82.1444 19.09C83.4044 19.09 84.6344 19.03 86.2544 18.88V21.34C84.6344 21.64 80.7644 22 77.1944 22H73.9844V19.93L74.7044 19.36ZM87.4909 27.13V24.91C88.4209 25.09 89.5909 25.24 90.9109 25.24C93.6709 25.24 94.8409 24.22 95.0509 22H91.9909C88.8409 22 87.7009 20.59 87.7009 17.59C87.7009 14.11 89.0209 12.58 92.0509 12.58C96.1609 12.58 96.9109 15.43 96.9109 19.27V19.36H98.4109V21.52C98.3209 21.73 97.9009 21.97 97.6909 22H96.8809C96.6109 26.14 94.6909 27.61 90.8809 27.61C89.6809 27.61 88.7509 27.46 87.4909 27.13ZM89.5009 17.38C89.5009 18.82 90.1609 19.57 92.1409 19.57H95.0809V19.03C95.0809 16.96 94.6309 15.04 91.9309 15.04C90.2509 15.04 89.5009 15.76 89.5009 17.38ZM105.066 12.58C108.186 12.58 109.536 14.02 109.536 17.41C109.536 18.79 110.076 19.36 111.276 19.36H111.996V21.52L111.276 22C109.896 22 109.026 21.43 108.576 20.17C108.006 21.46 106.866 22.06 105.066 22.06C103.356 22.06 102.126 21.52 101.136 20.35C100.446 21.49 99.4863 22 98.1062 22H97.6562V19.78L98.3762 19.36C99.3962 19.36 99.9962 18.79 100.326 17.47L100.506 16.75C101.286 13.84 102.666 12.58 105.066 12.58ZM101.916 18.25C101.886 18.37 101.856 18.49 101.826 18.61C102.846 19.27 103.866 19.54 105.096 19.54C106.926 19.54 107.736 18.91 107.736 17.47C107.736 15.79 106.926 15.07 105.066 15.07C103.416 15.07 102.486 15.88 102.066 17.71L101.916 18.25ZM116.043 14.26C114.663 14.26 113.943 14.74 113.943 15.94H112.143C112.143 13.03 113.373 11.77 115.893 11.77C120.273 11.77 122.043 15.61 125.373 15.61H126.363V17.62H124.983C124.743 17.62 124.533 17.65 124.293 17.68C124.413 18.64 125.163 19.36 127.803 19.36V21.7L127.053 22C123.933 22 122.823 20.14 122.703 18.07C119.583 19.18 116.223 22 112.473 22H111.273V20.02L111.963 19.36H112.443C116.343 19.36 118.923 17.74 121.713 16.6C119.913 15.61 118.383 14.26 116.043 14.26ZM118.893 27.7L117.153 25.96L118.893 24.25L120.633 25.96L118.893 27.7ZM134.504 12.58C137.624 12.58 138.974 14.02 138.974 17.41C138.974 20.62 137.654 22 134.624 22C132.854 22 131.594 21.49 130.544 20.29C129.824 21.43 128.834 22 127.514 22H127.094V19.78L127.814 19.36C128.834 19.36 129.404 18.79 129.764 17.47L129.944 16.75C130.724 13.84 132.074 12.58 134.504 12.58ZM131.354 18.25C131.324 18.37 131.294 18.46 131.264 18.58C132.284 19.21 133.304 19.51 134.504 19.51C136.364 19.51 137.174 18.88 137.174 17.44C137.174 15.79 136.364 15.07 134.504 15.07C132.824 15.07 131.924 15.88 131.504 17.71L131.354 18.25Z" fill="#CBA052"/>
<path d="M1.28115 49L5.8499 36.9512H8.0599L12.6287 49H10.7374L9.52615 45.77H4.3624L3.1724 49H1.28115ZM4.8299 44.3888H9.0799L6.9549 38.6725L4.8299 44.3888ZM13.4162 36.9725H15.265V47.5125H20.875V49H13.4162V36.9725ZM22.1108 36.9512H23.9808V42.7738L28.8471 36.9512H30.9508L26.4671 42.2213L31.8433 49.0212L29.6758 49L25.3621 43.5175L23.9808 45.1538V49H22.1108V36.9512ZM31.4229 36.9512H33.2717V44.0063C33.2717 46.45 33.9517 47.8312 36.0767 47.8312C38.1804 47.8312 38.8817 46.45 38.8817 44.0063V36.9512H40.7304V44.0063C40.7304 47.5125 39.3917 49.1912 36.0767 49.1912C32.7404 49.1912 31.4229 47.5125 31.4229 44.0063V36.9512ZM42.469 36.9725H44.3177V47.5125H49.9277V49H42.469V36.9725ZM49.9735 49L54.5423 36.9512H56.7523L61.321 49H59.4298L58.2185 45.77H53.0548L51.8648 49H49.9735ZM53.5223 44.3888H57.7723L55.6473 38.6725L53.5223 44.3888ZM62.0874 36.9512H63.9574V49H62.0874V36.9512ZM70.2527 36.9512C73.7377 36.9512 75.2464 37.865 75.2464 39.9688C75.2464 41.3075 74.6302 42.1575 73.2489 42.6038C74.7577 43.0713 75.4589 44.0488 75.4589 45.6213C75.4589 48.0013 73.9077 49 70.3377 49H65.9389V42.2425H65.9602V36.9512H70.2527ZM70.3377 43.2412H67.8089V47.6825H70.3377C72.6114 47.6825 73.5889 47.0237 73.5889 45.4513C73.5889 43.9 72.6114 43.2412 70.3377 43.2412ZM70.2739 38.29H67.8089V41.9663H70.2739C72.4627 41.9663 73.3977 41.4138 73.3977 40.1175C73.3977 38.8213 72.4627 38.29 70.2739 38.29ZM76.9292 36.9512H78.7992V49H76.9292V36.9512ZM88.6459 38.0987C86.4359 38.0987 85.4796 39.565 85.4796 42.9863C85.4796 46.4075 86.4359 47.8738 88.6671 47.8738C90.8559 47.8738 91.8334 46.7475 91.8971 44.1338H88.3909V42.7525H93.7671C93.7671 43.0288 93.7671 43.3475 93.7671 43.56C93.7246 47.5125 92.1946 49.2125 88.7096 49.2125C85.1396 49.2125 83.6309 47.3425 83.6309 42.9863C83.6309 38.6088 85.1396 36.7388 88.6671 36.7388C91.5359 36.7388 93.0021 37.9075 93.5546 40.585H91.6421C91.2384 38.8425 90.3459 38.0987 88.6459 38.0987ZM95.3237 36.9512H99.7012C103.25 36.9512 104.78 37.9287 104.78 40.2025C104.78 41.6262 104.185 42.54 102.867 43.0288C104.142 43.5388 104.801 44.495 104.801 45.9825V49.0212H102.931V45.9825C102.931 44.4313 102.039 43.6875 99.7224 43.6875H97.1937V49H95.3237V36.9512ZM99.7012 38.2688H97.1937V42.3913H99.7012C101.954 42.3913 102.91 41.775 102.91 40.33C102.91 38.885 101.954 38.2688 99.7012 38.2688ZM111.14 36.76C114.923 36.76 116.325 38.8638 116.325 42.9863C116.325 47.1088 114.923 49.2125 111.14 49.2125C107.379 49.2125 105.977 47.1088 105.977 42.9863C105.977 38.8638 107.379 36.76 111.14 36.76ZM111.14 38.12C108.633 38.12 107.868 39.9475 107.868 42.9863C107.868 46.025 108.633 47.8312 111.14 47.8312C113.648 47.8312 114.434 46.0038 114.434 42.9863C114.434 39.9263 113.669 38.12 111.14 38.12ZM117.635 36.9512H119.484V44.0063C119.484 46.45 120.164 47.8312 122.289 47.8312C124.392 47.8312 125.094 46.45 125.094 44.0063V36.9512H126.942V44.0063C126.942 47.5125 125.604 49.1912 122.289 49.1912C118.952 49.1912 117.635 47.5125 117.635 44.0063V36.9512ZM128.66 36.9512H133.037C136.607 36.9512 138.137 38.0137 138.137 40.5C138.137 42.9863 136.607 44.07 133.037 44.07H130.53V49H128.66V36.9512ZM133.037 38.29H130.53V42.71H133.037C135.311 42.71 136.267 42.0513 136.267 40.5C136.267 38.97 135.311 38.29 133.037 38.29Z" fill="#CBA052"/>
<path d="M158.934 0.5L152 12.9014L158.493 56.5H169.903L173.937 15.8725L174 15.485L158.934 0.5ZM157.799 41.7088L153.576 13.2243L157.799 5.66724V41.7088ZM160.447 4.11707L171.731 15.4204L160.447 26.7238V4.11707ZM167.066 53.8518H160.447V36.2186L167.066 53.8518ZM168.894 51.139L160.951 30.0179L172.109 18.7791L168.894 51.139Z" fill="#CBA052"/>
</svg>
